<svg width="243" height="92" viewBox="0 0 243 92" fill="none" xmlns="http://www.w3.org/2000/svg">
<g clip-path="url(#clip0_68_368)">
<path d="M26.4222 0.5H216.578C230.893 0.5 242.5 12.1298 242.5 26.4782V65.5218C242.5 79.8702 230.893 91.5 216.578 91.5H26.4222C12.1068 91.5 0.5 79.8702 0.5 65.5218V26.4782C0.5 12.1298 12.1068 0.5 26.4222 0.5Z" fill="white" stroke="black"/>
<path d="M28.9278 42.956C38.1343 42.956 45.5976 35.4769 45.5976 26.2509C45.5976 17.0249 38.1343 9.54578 28.9278 9.54578C19.7213 9.54578 12.258 17.0249 12.258 26.2509C12.258 35.4769 19.7213 42.956 28.9278 42.956Z" fill="#74B34E"/>
<path d="M22.896 32.1385C22.1022 32.1385 21.7836 33.091 22.2588 33.5726C23.8464 35.4828 26.2278 36.7545 28.9278 36.7545C31.6278 36.7545 34.0092 35.4828 35.5968 33.5726C36.072 32.934 35.5968 32.1385 34.9596 32.1385H22.8906H22.896Z" fill="#313233"/>
<path d="M21.9402 25.9316C23.5179 25.9316 24.7968 24.1509 24.7968 21.9542C24.7968 19.7576 23.5179 17.9768 21.9402 17.9768C20.3626 17.9768 19.0836 19.7576 19.0836 21.9542C19.0836 24.1509 20.3626 25.9316 21.9402 25.9316Z" fill="#313233"/>
<path d="M35.7534 25.9316C37.331 25.9316 38.61 24.1509 38.61 21.9542C38.61 19.7576 37.331 17.9768 35.7534 17.9768C34.1757 17.9768 32.8968 19.7576 32.8968 21.9542C32.8968 24.1509 34.1757 25.9316 35.7534 25.9316Z" fill="#313233"/>
<path d="M214.072 42.956C223.279 42.956 230.742 35.4769 230.742 26.2509C230.742 17.0249 223.279 9.54578 214.072 9.54578C204.866 9.54578 197.402 17.0249 197.402 26.2509C197.402 35.4769 204.866 42.956 214.072 42.956Z" fill="#C95766"/>
<path d="M220.104 36.7491C220.898 36.7491 221.216 35.7967 220.741 35.3151C219.154 33.4049 216.772 32.1332 214.072 32.1332C211.372 32.1332 208.991 33.4049 207.403 35.3151C206.928 35.9537 207.403 36.7491 208.04 36.7491H220.109H220.104Z" fill="#313233"/>
<path d="M207.085 25.9316C208.662 25.9316 209.941 24.1509 209.941 21.9542C209.941 19.7576 208.662 17.9768 207.085 17.9768C205.507 17.9768 204.228 19.7576 204.228 21.9542C204.228 24.1509 205.507 25.9316 207.085 25.9316Z" fill="#313233"/>
<path d="M220.898 25.9316C222.475 25.9316 223.754 24.1509 223.754 21.9542C223.754 19.7576 222.475 17.9768 220.898 17.9768C219.32 17.9768 218.041 19.7576 218.041 21.9542C218.041 24.1509 219.32 25.9316 220.898 25.9316Z" fill="#313233"/>
<path d="M73.5048 43.1076C82.7948 43.1076 90.3258 35.5606 90.3258 26.2509C90.3258 16.9413 82.7948 9.39429 73.5048 9.39429C64.2148 9.39429 56.6838 16.9413 56.6838 26.2509C56.6838 35.5606 64.2148 43.1076 73.5048 43.1076Z" fill="#96C476"/>
<path d="M66.6792 25.7748C68.2569 25.7748 69.5358 23.994 69.5358 21.7974C69.5358 19.6007 68.2569 17.8199 66.6792 17.8199C65.1015 17.8199 63.8226 19.6007 63.8226 21.7974C63.8226 23.994 65.1015 25.7748 66.6792 25.7748Z" fill="#313233"/>
<path d="M80.4816 25.7748C82.0593 25.7748 83.3382 23.994 83.3382 21.7974C83.3382 19.6007 82.0593 17.8199 80.4816 17.8199C78.9039 17.8199 77.625 19.6007 77.625 21.7974C77.625 23.994 78.9039 25.7748 80.4816 25.7748Z" fill="#313233"/>
<path d="M73.5048 37.8585C70.4916 37.8585 67.7916 36.5868 65.8908 34.2004C65.4156 33.7242 65.5722 32.9287 66.0474 32.4525C66.5226 31.9763 67.3164 32.1332 67.7916 32.6094C69.2172 34.3573 71.28 35.3152 73.5048 35.3152C75.7296 35.3152 77.787 34.3627 79.218 32.6094C79.6932 32.1332 80.487 31.9709 80.9622 32.4525C81.4374 32.9341 81.5994 33.7242 81.1188 34.2004C79.3746 36.5868 76.518 37.8585 73.5048 37.8585Z" fill="#313233"/>
<path d="M76.6422 75.376C76.6422 74.9376 76.761 74.0826 76.761 73.5956L76.7394 63.4167C76.7394 62.9567 76.6206 62.1017 76.6206 61.6904C76.6206 60.619 77.3712 59.764 78.4188 59.764H78.8292C79.6824 59.764 80.217 60.3484 80.5086 61.0789L80.8002 61.7337L84.2508 69.2069C84.5154 69.813 84.834 70.5923 85.0014 71.0793C85.1958 70.5923 85.5144 69.8401 85.806 69.1799L89.2296 61.7283L89.4942 61.0735C89.7858 60.343 90.369 59.7585 91.1466 59.7585H91.5354C92.5776 59.7585 93.3336 60.6136 93.3336 61.685C93.3336 62.0963 93.2094 62.9513 93.2094 63.4113V73.5902C93.2094 74.0772 93.3336 74.9052 93.3336 75.3922C93.3336 76.4853 92.5074 77.362 91.4166 77.362C90.3258 77.362 89.5212 76.4853 89.5212 75.3922C89.5212 74.9052 89.5914 74.0772 89.6184 73.5902L89.7642 69.2556C89.7858 68.6225 89.8128 67.6484 89.8614 66.8692L87.1614 72.7623C86.9184 73.2709 86.8914 73.417 86.751 73.7093C86.4594 74.3424 85.9734 74.7591 84.9744 74.7591C83.9754 74.7591 83.4894 74.3694 83.1978 73.7363C83.052 73.4441 83.0304 73.2763 82.7874 72.7623L80.0874 66.9179C80.0874 66.9179 80.1846 68.6225 80.2116 69.2556L80.3574 73.5902C80.379 74.0772 80.4546 74.8781 80.4546 75.3922C80.4546 76.4853 79.6554 77.362 78.5592 77.362C77.463 77.362 76.6422 76.4853 76.6422 75.3652V75.376Z" fill="#E48274"/>
<path d="M103.907 76.5232C103.226 77.1076 102.109 77.5947 100.823 77.5947C98.2476 77.5947 96.498 75.9388 96.498 73.8445C96.498 71.7503 98.1018 70.2405 101.455 70.0241C102.308 69.9537 102.843 69.8076 103.129 69.5857V69.1474C103.129 68.1733 102.546 67.6376 101.671 67.6376C100.991 67.6376 100.624 67.9298 100.505 68.2924C100.262 69.0716 99.7002 69.5316 98.8524 69.5316C97.686 69.5316 97.2756 68.5846 97.2756 67.9731C97.2756 67.3616 97.5402 66.9017 97.9776 66.4417C98.5824 65.7598 99.8244 65.078 101.623 65.078C104.755 65.078 106.601 66.6581 106.601 69.8022V73.7471C106.601 74.0177 106.623 74.1097 106.72 74.1097C106.769 74.1097 106.839 74.0881 106.963 74.0881C107.838 74.0881 108.373 74.7699 108.373 75.5492C108.373 76.4962 107.498 77.3728 106.018 77.3728C105.192 77.3728 104.463 77.0806 103.901 76.5232H103.907ZM103.129 74.4777V71.9722C102.719 72.1886 102.157 72.3348 101.428 72.4105C100.575 72.4809 100.046 73.0653 100.046 73.6984C100.046 74.429 100.651 75.0134 101.525 75.0134C102.281 75.0134 102.762 74.8186 103.129 74.4777Z" fill="#E48274"/>
<path d="M117.952 76.1066C117.391 76.8858 116.251 77.5947 114.793 77.5947C112.293 77.5947 110.322 75.744 110.322 72.8976V69.1204C110.322 68.6604 110.203 67.8054 110.203 67.3942C110.203 66.3011 111.078 65.446 112.12 65.446C113.162 65.446 114.037 66.2956 114.037 67.3942C114.037 67.8108 113.918 68.6604 113.918 69.1204V72.3835C113.918 73.6011 114.647 74.5265 115.765 74.5265C116.37 74.5265 117.126 74.2829 117.612 73.5794V69.1258C117.612 68.6659 117.488 67.8108 117.488 67.3996C117.488 66.3065 118.341 65.4515 119.405 65.4515C120.469 65.4515 121.322 66.3011 121.322 67.3996C121.322 67.8163 121.203 68.6659 121.203 69.1258V73.7039C121.203 74.1639 121.446 75.0189 121.446 75.4302C121.446 76.5233 120.69 77.3783 119.599 77.3783C118.746 77.3783 118.211 76.7938 117.947 76.112L117.952 76.1066Z" fill="#E48274"/>
<path d="M131.825 74.429C131.657 74.8402 131.414 75.5708 131.263 75.9388C131.047 76.5015 130.486 77.3024 129.416 77.3024H128.903C127.883 77.3024 127.3 76.5448 127.057 75.9388C126.911 75.5762 126.668 74.8456 126.495 74.429L124.357 69.4613C124.189 69.0446 123.795 68.3898 123.655 68.0218C123.557 67.8054 123.509 67.5618 123.509 67.34C123.482 66.3172 124.335 65.4406 125.426 65.4406C126.328 65.4406 126.905 66.025 127.148 66.6365C127.294 66.999 127.44 67.7783 127.732 68.6062L128.585 71.1388C128.855 71.9181 129.098 72.746 129.217 73.233C129.362 72.6973 129.627 71.7719 129.821 71.1659L130.648 68.6333C130.912 67.7837 131.058 67.0045 131.204 66.6365C131.447 66.0304 132.008 65.4406 132.905 65.4406C133.996 65.4406 134.849 66.2901 134.822 67.3129C134.822 67.5294 134.773 67.7729 134.676 67.9948C134.53 68.3627 134.163 69.0446 133.969 69.4558L131.809 74.4236L131.825 74.429Z" fill="#E48274"/>
<path d="M143.71 76.5232C143.03 77.1076 141.912 77.5947 140.627 77.5947C138.051 77.5947 136.301 75.9388 136.301 73.8445C136.301 71.7503 137.905 70.2405 141.259 70.0241C142.112 69.9537 142.646 69.8076 142.933 69.5857V69.1474C142.933 68.1733 142.349 67.6376 141.475 67.6376C140.794 67.6376 140.427 67.9298 140.308 68.2924C140.065 69.0716 139.504 69.5316 138.656 69.5316C137.489 69.5316 137.079 68.5846 137.079 67.9731C137.079 67.3616 137.344 66.9017 137.781 66.4417C138.386 65.7598 139.628 65.078 141.426 65.078C144.558 65.078 146.405 66.6581 146.405 69.8022V73.7471C146.405 74.0177 146.426 74.1097 146.524 74.1097C146.572 74.1097 146.642 74.0881 146.767 74.0881C147.641 74.0881 148.176 74.7699 148.176 75.5492C148.176 76.4962 147.301 77.3728 145.822 77.3728C144.995 77.3728 144.266 77.0806 143.705 76.5232H143.71ZM142.933 74.4777V71.9722C142.522 72.1886 141.961 72.3348 141.232 72.4105C140.378 72.4809 139.849 73.0653 139.849 73.6984C139.849 74.429 140.454 75.0134 141.329 75.0134C142.085 75.0134 142.565 74.8186 142.933 74.4777Z" fill="#E48274"/>
<path d="M152.167 59.5259C153.306 59.5259 154.208 60.4025 154.208 61.5011C154.208 62.5996 153.306 63.4979 152.167 63.4979C151.027 63.4979 150.125 62.6212 150.125 61.5011C150.125 60.3809 151.049 59.5259 152.167 59.5259ZM150.368 69.1204C150.368 68.6604 150.244 67.8054 150.244 67.3941C150.244 66.301 151.119 65.446 152.167 65.446C153.214 65.446 154.084 66.2956 154.084 67.3941C154.084 67.8108 153.959 68.6604 153.959 69.1204V73.6985C153.959 74.1584 154.084 75.0134 154.084 75.4247C154.084 76.5178 153.23 77.3728 152.167 77.3728C151.103 77.3728 150.244 76.5232 150.244 75.4247C150.244 75.008 150.368 74.1584 150.368 73.6985V69.1204Z" fill="#E48274"/>
<path d="M162.929 73.9907C162.929 73.5036 162.589 73.1898 161.374 72.8434L160.861 72.6973C158.409 71.9938 157.118 70.6031 157.118 68.7307C157.118 66.8584 158.603 65.078 161.784 65.078C163.291 65.078 164.797 65.5867 165.526 66.5391C165.769 66.88 165.915 67.1939 165.915 67.5889C165.915 68.5359 165.235 69.2448 164.236 69.2448C163.604 69.2448 162.972 68.8065 162.659 68.2004C162.437 67.7837 162.027 67.6647 161.422 67.6647C160.817 67.6647 160.304 67.9785 160.304 68.5197C160.304 69.0067 160.715 69.3206 161.665 69.6399L162.491 69.905C165.553 70.9061 166.379 72.0696 166.379 73.85C166.379 75.8684 164.462 77.6001 161.374 77.6001C159.332 77.6001 157.658 76.9453 156.827 75.6736C156.632 75.3814 156.487 74.9701 156.487 74.5805C156.487 73.7309 157.216 73.0004 158.063 73.0004C158.911 73.0004 159.424 73.5361 159.694 74.1476C159.91 74.6833 160.591 74.9755 161.395 74.9755C162.297 74.9755 162.923 74.5859 162.923 74.0015L162.929 73.9907Z" fill="#E48274"/>
<path d="M118.406 43.1076C127.696 43.1076 135.227 35.5606 135.227 26.2509C135.227 16.9413 127.696 9.39429 118.406 9.39429C109.116 9.39429 101.585 16.9413 101.585 26.2509C101.585 35.5606 109.116 43.1076 118.406 43.1076Z" fill="#F6C58A"/>
<path d="M111.424 25.7748C113.001 25.7748 114.28 23.994 114.28 21.7974C114.28 19.6007 113.001 17.8199 111.424 17.8199C109.846 17.8199 108.567 19.6007 108.567 21.7974C108.567 23.994 109.846 25.7748 111.424 25.7748Z" fill="#313233"/>
<path d="M125.231 25.7748C126.809 25.7748 128.088 23.994 128.088 21.7974C128.088 19.6007 126.809 17.8199 125.231 17.8199C123.654 17.8199 122.375 19.6007 122.375 21.7974C122.375 23.994 123.654 25.7748 125.231 25.7748Z" fill="#313233"/>
<path d="M125.069 36.4245H111.742C111.105 36.4245 110.473 35.7859 110.473 35.1528C110.473 34.5197 111.11 33.8811 111.742 33.8811H125.069C125.707 33.8811 126.338 34.5197 126.338 35.1528C126.338 35.7859 125.701 36.4245 125.069 36.4245Z" fill="#313233"/>
<path d="M166.482 46.2841C177.523 46.2841 186.473 37.315 186.473 26.2509C186.473 15.1869 177.523 6.21777 166.482 6.21777C155.441 6.21777 146.491 15.1869 146.491 26.2509C146.491 37.315 155.441 46.2841 166.482 46.2841Z" fill="#E48274"/>
<path d="M158.074 25.7693C160.001 25.7693 161.563 23.6349 161.563 21.0019C161.563 18.3689 160.001 16.2344 158.074 16.2344C156.148 16.2344 154.586 18.3689 154.586 21.0019C154.586 23.6349 156.148 25.7693 158.074 25.7693Z" fill="#313233"/>
<path d="M174.733 25.7693C176.66 25.7693 178.222 23.6349 178.222 21.0019C178.222 18.3689 176.66 16.2344 174.733 16.2344C172.807 16.2344 171.245 18.3689 171.245 21.0019C171.245 23.6349 172.807 25.7693 174.733 25.7693Z" fill="#313233"/>
<path d="M174.415 40.2396C173.939 40.2396 173.621 40.0826 173.302 39.7634C171.558 37.6962 169.177 36.5814 166.482 36.5814C163.787 36.5814 161.406 37.6962 159.662 39.7634C159.187 40.4019 158.236 40.5588 157.442 39.9203C156.805 39.4441 156.649 38.4917 157.286 37.6962C159.505 34.9905 162.837 33.4049 166.487 33.4049C170.138 33.4049 173.308 34.9959 175.689 37.6962C176.164 38.3347 176.164 39.2871 175.532 39.9203C175.057 40.2396 174.739 40.2396 174.42 40.2396H174.415Z" fill="#313233"/>
</g>
<defs>
<clipPath id="clip0_68_368">
<rect width="243" height="92" fill="white"/>
</clipPath>
</defs>
</svg>
