<svg width="150" height="161" viewBox="0 0 150 161" fill="none" xmlns="http://www.w3.org/2000/svg">
<g clip-path="url(#clip0_68_283)">
<path d="M94.8162 61.8819C94.879 45.6867 82.972 31.7917 67.0437 29.271C49.7644 26.5613 33.1134 38.4084 30.0031 55.6433C29.9403 55.9584 29.8775 56.2419 29.7832 56.557C29.3434 57.9749 28.2752 58.6996 26.9871 58.4475C25.699 58.1954 24.8822 56.9036 25.1335 55.4542C26.7672 46.6005 30.82 39.1015 37.7003 33.2725C59.6607 14.6198 92.8684 26.0887 98.869 54.3514C103.173 74.6427 89.0041 95.438 68.6145 98.7463C48.4449 102.023 30.1916 89.798 25.5105 69.8849C25.3534 69.2863 25.2278 68.6561 25.1335 68.0575C24.8508 66.4506 25.5419 65.1587 26.8929 64.8436C28.2438 64.5286 29.4376 65.3478 29.7832 66.9862C30.443 70.326 31.4169 73.5714 32.9563 76.6277C39.2711 89.0103 52.7176 96.1312 66.3211 94.3037C80.2388 92.4447 91.4232 81.921 94.1879 68.0575C94.6277 65.9779 94.722 63.8669 94.8162 61.8819Z" fill="black"/>
<path d="M125.887 1.32334C124.254 0.787702 122.589 0.472621 120.923 0.0315081H114.672C114.389 0.126032 114.106 0.283573 113.823 0.346589C103.393 1.9535 95.0988 10.0196 92.8682 20.7638C90.7947 30.7204 95.6643 41.7482 104.43 47.1361C107.697 49.1526 111.436 50.1924 114.672 52.3979C117.562 54.3514 119.51 56.494 119.51 60.0544C119.478 63.5518 117.688 65.8834 114.672 67.4903C108.043 71.0507 105.781 78.4551 109.174 85.1979C110.713 88.2541 110.367 91.1844 108.388 93.8941C106.409 96.5723 103.738 97.6435 100.408 97.0449C98.9631 96.7928 97.4865 96.7298 96.0413 97.0449C90.2606 98.3997 86.5534 101.834 85.4852 107.821C84.8883 111.098 83.2546 113.587 80.0187 114.658C76.7513 115.761 73.9238 114.847 71.379 112.515C65.5041 107.096 58.4353 107.19 52.6545 112.704C50.2354 115.005 47.4079 115.729 44.2976 114.689C41.0931 113.618 39.3024 111.255 38.7997 107.884C38.0143 102.622 33.9301 98.3682 28.7463 97.0764C26.6099 96.5408 24.5992 97.2339 22.5257 97.1709C16.0853 96.9504 12.1896 90.9638 15.0799 85.2609C18.5672 78.3921 15.8025 70.3576 9.11071 67.1437C6.15752 65.7259 4.68093 63.1422 4.71235 59.9284C4.71235 56.683 6.22036 54.1624 9.17355 52.713C16.0538 49.3417 18.63 41.1811 15.0485 34.5959C12.1267 29.1765 16.368 22.4338 22.3686 22.8434C23.2483 22.9064 24.1594 22.8749 25.0391 22.9379C32.045 23.442 37.7315 18.9049 38.8625 11.8785C39.1767 9.95655 39.9307 8.28663 41.3759 6.96329C44.7061 3.907 49.3872 3.97002 52.7802 7.27837C55.4192 9.83052 58.4667 11.3114 62.1424 11.3114C65.8182 11.3114 68.9285 9.89354 71.5047 7.30988C73.4211 5.38788 75.7145 4.37962 78.4478 4.85224C82.532 5.54542 84.794 8.03456 85.548 12.5087C85.8308 14.1156 86.7419 14.9033 88.1871 14.7773C89.5694 14.6513 90.3234 13.6745 90.2606 12.0046C90.0721 7.15233 86.2706 2.23707 81.4953 0.630162C80.8669 0.409605 80.1443 0.472621 79.6102 0H74.8977C72.133 0.220557 69.6511 1.13429 67.7347 3.18232C64.373 6.74273 59.7548 6.42765 56.3617 3.1193C55.702 2.45763 55.0108 1.85898 54.2254 1.32334C52.686 0.283573 50.8638 0.472621 49.1987 0.0315081H44.4861C44.2976 0.472621 43.8578 0.315081 43.5436 0.409605C38.3913 2.01652 35.0611 5.41939 34.2757 10.7758C33.5531 15.7225 29.1233 18.8418 24.3479 18.1802C14.6715 16.8253 9.36205 24.4188 9.36205 30.9409C9.36205 33.304 10.336 35.2891 11.0586 37.4001C11.6241 39.0385 12.1582 40.6454 11.7811 42.4414C11.1528 45.4031 9.29921 47.2306 6.72303 48.6485C2.35608 51.0431 0.0312276 54.8556 -0.000189287 59.8969C-0.0316062 65.0327 2.29324 68.8137 6.69161 71.3343C11.9068 74.2961 13.1635 78.1085 10.6187 83.5279C9.36205 86.2376 9.01646 89.0418 9.70763 91.9406C11.0586 97.675 15.9596 101.803 21.8031 101.929C23.3426 101.96 23.1855 102.464 22.8085 103.536C21.8974 106.088 21.0806 108.671 20.2009 111.255C16.4309 122.598 12.6608 133.909 8.89079 145.252C7.50845 149.474 10.0846 152.783 14.3573 152.216C18.0331 151.743 21.6775 151.207 25.3532 150.672C26.3586 150.514 27.1126 150.672 27.8666 151.459C30.38 154.106 33.019 156.658 35.5952 159.242C36.1921 159.84 36.8204 160.376 37.6058 160.66C40.559 161.731 43.2609 160.219 44.4233 156.753C48.9788 143.047 53.5656 129.341 58.0583 115.603C58.4981 114.311 59.2521 113.713 60.4459 113.524C61.6398 113.335 62.8336 113.335 64.0275 113.555C65.0956 113.776 65.7554 114.28 66.1638 115.477C70.7193 129.341 75.3375 143.204 79.9558 157.068C81.3382 161.258 85.5795 162.267 88.6897 159.179C91.2031 156.69 93.7478 154.201 96.1984 151.617C97.1095 150.64 98.0205 150.483 99.2458 150.672C102.953 151.27 106.66 151.774 110.399 152.279C112.598 152.562 114.672 151.207 115.488 149.159C116.085 147.615 115.708 146.197 115.206 144.717C110.65 131.042 106.095 117.399 101.539 103.725C100.974 101.992 100.974 101.929 102.702 101.929C109.236 101.897 113.698 96.0051 114.703 91.8776C115.394 89.0103 114.452 86.3952 113.666 83.7485C113.226 82.2991 112.598 80.8812 112.472 79.3689C112.221 75.5564 114.2 73.0987 117.405 71.3658C122.526 68.5931 125.008 63.4258 124.097 57.7228C123.688 55.1707 122.463 53.0281 120.892 51.0746C121.206 50.665 121.583 50.665 121.96 50.602C133.082 48.869 142.193 39.2591 143.167 28.2943C144.203 16.0376 137.229 5.0728 125.887 1.32334ZM18.85 145.567C18.5672 146.544 18.0645 146.922 17.1534 147.017C16.1167 147.111 15.0799 147.3 13.9803 147.458C12.7551 147.458 13.4777 146.67 13.6033 146.197C15.0799 141.692 16.5879 137.186 18.0959 132.681C21.3319 122.913 24.5992 113.177 27.8038 103.41C28.2122 102.118 28.7463 101.834 29.8459 102.559C30.4114 102.937 30.9455 103.347 31.511 103.725C32.3906 104.355 32.3278 105.079 32.0136 106.056C28.275 117.242 24.5678 128.427 20.8606 139.612C20.1695 141.597 19.4155 143.551 18.85 145.567ZM32.1393 148.214C32.1079 148.34 31.9508 148.466 31.6995 148.75C29.8773 145.693 27.2068 144.906 23.6882 146.197C27.4896 134.729 31.1968 123.638 34.8412 112.61C35.3438 112.515 35.3752 112.893 35.5323 113.146C36.789 115.446 38.5798 117.242 40.9046 118.439C41.5958 118.785 41.8471 119.101 41.5958 119.857C38.4227 129.309 35.281 138.762 32.1393 148.214ZM51.5235 120.203C47.6278 131.861 43.7321 143.551 39.8679 155.209C39.7736 155.524 39.805 155.965 39.2709 156.091C39.1139 155.934 38.9254 155.776 38.7054 155.587C36.6529 153.759 36.0559 151.554 36.9147 148.97C39.9621 139.77 43.041 130.569 46.057 121.338C46.3712 120.392 46.7482 119.825 47.8792 119.825C48.7903 119.825 49.7642 119.636 50.6439 119.353C51.6178 119.038 51.8691 119.164 51.5235 120.203ZM87.9043 153.224C86.9304 154.232 85.9879 155.272 84.794 156.564C80.5842 143.897 76.5 131.609 72.3215 119.069C74.018 119.51 75.4946 119.888 76.9712 119.951C77.6624 119.983 77.8195 120.455 77.9766 120.96C81.3696 131.2 84.7626 141.44 88.1871 151.68C88.407 152.279 88.3756 152.72 87.9043 153.224ZM98.9316 145.851C96.544 145.095 94.7846 145.882 93.308 147.773C93.0567 148.088 92.7111 148.309 92.2398 148.718C89.0039 139.014 85.8308 129.498 82.6891 120.014C82.5006 119.416 82.2807 118.943 83.1289 118.533C85.8308 117.273 87.7158 115.162 89.0353 112.484C89.538 112.673 89.5066 113.114 89.6322 113.492C93.0567 123.827 96.4811 134.161 99.9684 144.496C100.408 145.725 100.188 146.229 98.9316 145.851ZM110.493 145.788C110.65 146.292 110.776 146.765 110.996 147.521C109.268 147.269 107.666 147.048 106.095 146.765C105.498 146.67 105.561 146.04 105.404 145.63C100.974 132.334 96.544 119.038 92.0828 105.741C91.7686 104.827 91.9571 104.26 92.6797 103.725C92.931 103.536 93.1509 103.315 93.4023 103.126C95.4758 101.582 95.7899 101.677 96.6068 104.071C101.256 117.998 105.875 131.893 110.493 145.788ZM117.845 46.2224C106.503 46.2224 97.1095 36.7384 97.2037 25.3955C97.298 14.0211 106.597 4.72621 117.876 4.75772C129.249 4.75772 138.517 14.1156 138.486 25.5846C138.486 36.896 129.155 46.2224 117.845 46.2224Z" fill="black"/>
<path d="M147.722 67.4431H134.213C132.956 67.4431 131.935 66.419 131.935 65.1587C131.935 63.8984 132.956 62.8744 134.213 62.8744H147.722C148.979 62.8744 150 63.8984 150 65.1587C150 66.419 148.979 67.4431 147.722 67.4431Z" fill="black"/>
<path d="M140.968 74.2173C139.711 74.2173 138.69 73.1933 138.69 71.933V58.3845C138.69 57.1242 139.711 56.1002 140.968 56.1002C142.224 56.1002 143.245 57.1242 143.245 58.3845V71.933C143.245 73.1933 142.224 74.2173 140.968 74.2173Z" fill="black"/>
<path d="M73.7857 86.9907C71.3792 86.9907 69.3654 85.9635 67.672 85.1002C66.7609 84.6339 65.897 84.1959 65.0456 83.9249L65.0141 83.9155C64.6403 83.7894 64.2727 83.7044 63.8957 83.6571L63.7292 83.6413C61.9133 83.4334 59.7927 83.8115 57.76 84.7158C56.5693 85.2451 55.1775 84.7063 54.6529 83.5122C54.125 82.318 54.6623 80.9222 55.853 80.396C57.7977 79.5327 60.8011 78.5843 64.1313 78.934L64.2821 78.9466C65.0361 79.0254 65.7587 79.183 66.4907 79.4287C67.7034 79.8163 68.7748 80.3645 69.8115 80.8907C71.8725 81.9399 73.214 82.5638 74.7879 82.1353C76.7986 81.5618 78.6271 79.4791 78.5203 77.8596L78.514 77.7682C78.5014 77.68 78.4386 77.3082 78.1778 76.8009C77.606 75.7045 76.4248 75.2161 74.5429 74.5072C72.7993 73.8518 70.82 73.1051 69.3057 71.3973C68.1527 70.0897 67.5746 68.571 67.0625 67.2319C66.8897 66.7814 66.7295 66.356 66.5536 65.9622C65.677 63.9677 63.2925 63.243 61.4483 63.4132C60.5529 63.4951 58.4197 63.9299 57.9014 66.1418C57.8385 66.4064 57.7851 66.6616 57.7286 66.9169C57.3547 68.6498 56.8929 70.8081 54.8288 72.4087C53.5784 73.4012 52.1552 73.8518 50.8985 74.2488C50.5247 74.3654 50.1728 74.4788 49.8429 74.5985C48.9224 74.9325 48.3161 75.6068 48.0364 76.6119C47.6186 78.1085 48.0239 80.0211 49.0229 81.2593C49.6733 82.0691 50.3676 82.3275 51.4138 82.1479C52.6956 81.9336 53.9146 82.7969 54.1313 84.0825C54.3481 85.368 53.4841 86.5905 52.2023 86.8079C49.4596 87.2742 47.0908 86.3826 45.3566 84.2306C43.3993 81.8013 42.6704 78.3133 43.4999 75.3421C44.1942 72.853 45.8781 71.0129 48.2469 70.1559C48.6679 70.0047 49.0826 69.8723 49.4848 69.7431C50.4398 69.4407 51.3415 69.1571 51.9133 68.7002L51.9416 68.6782C52.617 68.1551 52.8118 67.3737 53.1228 65.9244C53.1857 65.6376 53.2454 65.3478 53.3145 65.0579C54.1439 61.5069 57.0939 59.0714 61.0116 58.7059C65.322 58.3057 69.2806 60.4514 70.864 64.0496C71.087 64.5538 71.2787 65.0547 71.464 65.54C71.8662 66.5986 72.2495 67.5974 72.8307 68.2591C73.5658 69.0878 74.7848 69.5478 76.1954 70.0771C78.3004 70.868 80.9174 71.8542 82.3594 74.6206C82.9689 75.8084 83.2014 76.9175 83.2234 77.6044C83.4402 81.4263 80.2325 85.4909 76.0478 86.685C75.2592 86.8993 74.5052 86.9907 73.7889 86.9907H73.7857ZM78.5108 77.6989C78.5108 77.6989 78.5108 77.7178 78.5108 77.7336V77.6989Z" fill="black"/>
<path d="M68.9413 59.9756C66.2834 59.9756 62.9689 58.4916 61.0713 54.9312C59.0921 51.1817 59.378 46.7895 59.8021 42.9676C60.1068 40.2389 60.7446 34.5832 65.0361 33.1244C66.0101 32.7684 67.5495 32.6045 69.4565 33.7703C75.4697 37.356 77.7537 45.9419 76.4876 52.1774C75.9441 54.7736 74.3764 59.2131 69.9529 59.9031C69.6324 59.9536 69.2931 59.9788 68.9444 59.9788L68.9413 59.9756ZM66.563 37.5954H66.5567C65.0927 38.0806 64.634 42.1546 64.4863 43.4937C64.125 46.7548 63.8831 50.1577 65.2341 52.7098C65.9912 54.1309 67.7003 55.4668 69.2303 55.2305C70.7697 54.991 71.5174 52.9178 71.8725 51.2195C73.0474 45.4252 70.2796 39.7506 67.0405 37.8254L67.0091 37.8065C66.7766 37.6647 66.6321 37.6112 66.5661 37.5923L66.563 37.5954Z" fill="black"/>
<path d="M54.9356 60.4104C54.7974 60.4104 54.656 60.4072 54.5177 60.3978C52.3091 60.2686 49.3183 58.9988 47.6751 53.6992C45.9472 47.9426 47.3547 39.7096 52.6987 35.8593C54.367 34.6368 55.8404 34.6494 56.7892 34.8826C61.0053 35.8688 62.0829 41.1369 62.6013 43.6702C63.192 46.6099 64.0873 51.0399 62.4662 54.9185C61.2975 57.707 58.3695 60.4104 54.9387 60.4104H54.9356ZM55.7713 39.4985C55.7147 39.5237 55.6111 39.5741 55.4603 39.6844C52.6547 41.704 50.6126 47.1014 52.1803 52.3128C52.8495 54.4743 53.7355 55.6149 54.8068 55.6779C56.1483 55.763 57.5683 54.4018 58.1213 53.0879C59.0983 50.7437 58.6145 47.741 57.983 44.6091C57.7443 43.4401 57.0154 39.8923 55.7744 39.4985H55.7713Z" fill="black"/>
<path d="M45.8624 70.3071C42.9563 70.3071 40.4367 68.3851 39.18 66.3339C37.2636 63.2209 37.3327 59.4935 37.5495 56.2451C37.6877 53.904 37.9799 48.9982 41.841 47.489C43.0726 47.0069 44.4801 47.1203 45.8058 47.804C51.2598 50.5515 53.6349 57.7385 52.7804 63.1075C52.0138 68.3347 49.0324 69.762 47.3233 70.1464C46.8269 70.2567 46.3399 70.3103 45.8593 70.3103L45.8624 70.3071ZM43.4716 51.9284C42.8244 52.2876 42.4128 53.8378 42.2526 56.5412C42.0829 59.0745 42.0044 61.9228 43.1951 63.8543C43.8109 64.8625 45.1681 65.7857 46.296 65.5305C47.5306 65.2532 47.9736 63.4415 48.1276 62.3891C48.8721 57.7228 46.3996 53.3841 43.6883 52.023L43.6538 52.0072C43.5721 51.9631 43.5124 51.9411 43.4747 51.9284H43.4716Z" fill="black"/>
<path d="M79.8586 70.1086C77.0877 70.1086 74.2507 68.5143 72.683 66.4757C68.7025 61.2611 72.5542 53.1919 75.9189 49.3322C77.0154 48.0624 79.312 45.4094 82.1615 46.1373C85.0047 46.8367 85.6676 49.9371 86.4342 53.5259L86.4719 53.6992C87.1473 56.8122 87.9171 60.3506 86.4436 64.393C85.8592 66.0441 85.0518 68.3347 82.6422 69.4942C81.7593 69.9164 80.8137 70.1055 79.8618 70.1055L79.8586 70.1086ZM80.9174 50.9675C80.5655 51.2416 80.0817 51.73 79.4753 52.4326C78.3663 53.7055 76.918 55.9268 76.1577 58.3656C75.6645 59.9473 75.3126 62.1402 76.4248 63.5959C77.4144 64.8877 79.5664 65.7321 80.6063 65.2312C81.2158 64.9381 81.5583 64.0748 82.0107 62.7924C82.9532 60.2056 82.5636 57.9087 81.8662 54.6949L81.8285 54.5121C81.574 53.3148 81.241 51.7615 80.9205 50.9643L80.9174 50.9675Z" fill="black"/>
<path d="M118.347 11.595C118.944 11.595 119.478 11.784 119.95 12.1936C120.421 12.6032 120.641 13.1074 120.641 13.706V37.148C120.641 37.7467 120.421 38.2823 119.981 38.7234C119.541 39.1645 119.007 39.3851 118.347 39.3851C117.688 39.3851 117.154 39.1645 116.714 38.7234C116.305 38.2823 116.085 37.7467 116.085 37.148V19.4405C115.834 19.7871 115.551 20.1337 115.3 20.5433C115.049 20.9214 114.766 21.2995 114.483 21.6145C114.2 21.9296 113.918 22.2132 113.572 22.4338C113.227 22.6543 112.881 22.7803 112.535 22.7803C111.97 22.7803 111.404 22.5913 110.902 22.1817C110.399 21.7721 110.148 21.2364 110.148 20.5748C110.148 20.0076 110.368 19.4405 110.807 18.9364L116.62 12.3512C117.091 11.847 117.688 11.595 118.347 11.595Z" fill="black"/>
</g>
<defs>
<clipPath id="clip0_68_283">
<rect width="150" height="161" fill="white"/>
</clipPath>
</defs>
</svg>
