<svg width="243" height="92" viewBox="0 0 243 92" fill="none" xmlns="http://www.w3.org/2000/svg">
<g clip-path="url(#clip0_68_473)">
<path d="M26.4222 0.5H216.578C230.893 0.5 242.5 12.1298 242.5 26.4782V65.5218C242.5 79.8702 230.893 91.5 216.578 91.5H26.4222C12.1068 91.5 0.5 79.8702 0.5 65.5218V26.4782C0.5 12.1298 12.1068 0.5 26.4222 0.5Z" fill="white" stroke="black"/>
<path d="M124.843 42.956C115.636 42.956 108.173 35.4774 108.173 26.2509C108.173 17.0244 115.636 9.54578 124.843 9.54578C134.05 9.54578 141.512 17.0244 141.512 26.2509C141.512 35.4774 134.05 42.956 124.843 42.956Z" fill="#F6C58A"/>
<path d="M117.855 25.7693C119.433 25.7693 120.712 23.9885 120.712 21.7919C120.712 19.5952 119.433 17.8145 117.855 17.8145C116.277 17.8145 114.998 19.5952 114.998 21.7919C114.998 23.9885 116.277 25.7693 117.855 25.7693Z" fill="#313233"/>
<path d="M131.668 25.7693C133.246 25.7693 134.525 23.9885 134.525 21.7919C134.525 19.5952 133.246 17.8145 131.668 17.8145C130.091 17.8145 128.812 19.5952 128.812 21.7919C128.812 23.9885 130.091 25.7693 131.668 25.7693Z" fill="#313233"/>
<path d="M131.355 36.4299H118.017C117.38 36.4299 116.748 35.7913 116.748 35.1582C116.748 34.525 117.385 33.8865 118.017 33.8865H131.355C131.992 33.8865 132.624 34.525 132.624 35.1582C132.781 35.7967 132.149 36.4299 131.355 36.4299Z" fill="#313233"/>
<path d="M32.2704 46.3004C21.222 46.3004 12.2634 37.3228 12.2634 26.2509C12.2634 15.1791 21.222 6.20154 32.2704 6.20154C43.3188 6.20154 52.2774 15.1791 52.2774 26.2509C52.2774 37.3228 43.3188 46.3004 32.2704 46.3004Z" fill="#74B34E"/>
<path d="M32.1138 38.6595C35.289 38.6595 38.1456 37.2254 40.0518 35.0013C40.689 34.3628 40.0518 33.2534 39.258 33.2534H24.9696C24.0192 33.2534 23.5386 34.3682 24.1758 35.0013C26.082 37.2308 28.9386 38.6595 32.1138 38.6595Z" fill="#313233"/>
<path d="M24.0138 25.7693C25.9434 25.7693 27.5076 23.6324 27.5076 20.9964C27.5076 18.3604 25.9434 16.2235 24.0138 16.2235C22.0842 16.2235 20.52 18.3604 20.52 20.9964C20.52 23.6324 22.0842 25.7693 24.0138 25.7693Z" fill="#313233"/>
<path d="M40.527 25.7693C42.4566 25.7693 44.0208 23.6324 44.0208 20.9964C44.0208 18.3604 42.4566 16.2235 40.527 16.2235C38.5974 16.2235 37.0332 18.3604 37.0332 20.9964C37.0332 23.6324 38.5974 25.7693 40.527 25.7693Z" fill="#313233"/>
<path d="M214.078 42.956C204.871 42.956 197.408 35.4774 197.408 26.2509C197.408 17.0244 204.871 9.54578 214.078 9.54578C223.285 9.54578 230.747 17.0244 230.747 26.2509C230.747 35.4774 223.285 42.956 214.078 42.956Z" fill="#C95766"/>
<path d="M220.115 36.7491C220.909 36.7491 221.227 35.7967 220.752 35.3151C219.164 33.4049 216.783 32.1332 214.083 32.1332C211.383 32.1332 209.002 33.4049 207.414 35.3151C206.939 35.9537 207.414 36.7491 208.051 36.7491H220.12H220.115Z" fill="#313233"/>
<path d="M207.095 25.7693C208.673 25.7693 209.952 23.9885 209.952 21.7919C209.952 19.5952 208.673 17.8145 207.095 17.8145C205.518 17.8145 204.239 19.5952 204.239 21.7919C204.239 23.9885 205.518 25.7693 207.095 25.7693Z" fill="#313233"/>
<path d="M220.909 25.7693C222.486 25.7693 223.765 23.9885 223.765 21.7919C223.765 19.5952 222.486 17.8145 220.909 17.8145C219.331 17.8145 218.052 19.5952 218.052 21.7919C218.052 23.9885 219.331 25.7693 220.909 25.7693Z" fill="#313233"/>
<path d="M80.2224 42.956C71.0154 42.956 63.5526 35.4774 63.5526 26.2509C63.5526 17.0244 71.0154 9.54578 80.2224 9.54578C89.4294 9.54578 96.8922 17.0244 96.8922 26.2509C96.8922 35.4774 89.4294 42.956 80.2224 42.956Z" fill="#96C476"/>
<path d="M73.2402 25.7693C74.8179 25.7693 76.0968 23.9885 76.0968 21.7919C76.0968 19.5952 74.8179 17.8145 73.2402 17.8145C71.6626 17.8145 70.3836 19.5952 70.3836 21.7919C70.3836 23.9885 71.6626 25.7693 73.2402 25.7693Z" fill="#313233"/>
<path d="M87.0534 25.7693C88.6311 25.7693 89.91 23.9885 89.91 21.7919C89.91 19.5952 88.6311 17.8145 87.0534 17.8145C85.4757 17.8145 84.1968 19.5952 84.1968 21.7919C84.1968 23.9885 85.4757 25.7693 87.0534 25.7693Z" fill="#313233"/>
<path d="M80.2224 38.0263C77.2038 38.0263 74.5038 36.7546 72.603 34.5251C72.1278 34.0489 72.2844 33.2534 72.7596 32.7772C73.2348 32.301 74.0286 32.4579 74.5038 32.9341C75.9348 34.682 77.9976 35.6399 80.2224 35.6399C82.4472 35.6399 84.51 34.6874 85.941 32.9341C86.4162 32.4579 87.21 32.2956 87.6852 32.7772C88.1604 33.2534 88.3224 34.0489 87.8418 34.5251C85.9356 36.5923 83.079 38.0263 80.2224 38.0263Z" fill="#313233"/>
<path d="M169.463 42.956C160.256 42.956 152.793 35.4774 152.793 26.2509C152.793 17.0244 160.256 9.54578 169.463 9.54578C178.67 9.54578 186.133 17.0244 186.133 26.2509C186.133 35.4774 178.67 42.956 169.463 42.956Z" fill="#E48274"/>
<path d="M162.475 25.7693C164.053 25.7693 165.332 23.9885 165.332 21.7919C165.332 19.5952 164.053 17.8145 162.475 17.8145C160.898 17.8145 159.619 19.5952 159.619 21.7919C159.619 23.9885 160.898 25.7693 162.475 25.7693Z" fill="#313233"/>
<path d="M176.288 25.7693C177.866 25.7693 179.145 23.9885 179.145 21.7919C179.145 19.5952 177.866 17.8145 176.288 17.8145C174.711 17.8145 173.432 19.5952 173.432 21.7919C173.432 23.9885 174.711 25.7693 176.288 25.7693Z" fill="#313233"/>
<path d="M162 37.707C161.525 37.2308 161.363 36.4353 161.843 35.9591C163.75 33.7296 166.606 32.4579 169.463 32.4579C172.481 32.4579 175.181 33.7296 177.082 35.9591C177.557 36.4353 177.401 37.2308 176.926 37.707" fill="#313233"/>
<path d="M175.176 37.5446C173.745 35.7967 171.682 34.8389 169.457 34.8389C167.233 34.8389 165.17 35.7913 163.739 37.5446" fill="#313233"/>
<path d="M72.9864 66.6582H75.438C75.8484 66.6582 76.6044 66.5337 76.9662 66.5337C77.9598 66.5337 78.6672 67.2426 78.6672 68.1896C78.6672 69.1366 77.9598 69.8185 76.9662 69.8185C76.599 69.8185 75.8484 69.694 75.438 69.694H72.9864V74.0286H77.5062C77.922 74.0286 78.6726 73.8121 79.0344 73.8121C80.055 73.8121 80.784 74.5427 80.784 75.5167C80.784 76.4908 80.028 77.27 79.0128 77.27H71.2152C70.1244 77.27 69.2712 76.3934 69.2712 75.2732C69.2712 74.8349 69.3954 73.9582 69.3954 73.4712V63.6602C69.3954 63.1732 69.2712 62.2966 69.2712 61.8582C69.2712 60.7381 70.1244 59.8831 71.2152 59.8831H78.5754C79.596 59.8831 80.3466 60.6623 80.3466 61.6364C80.3466 62.6104 79.6176 63.341 78.597 63.341C78.2352 63.341 77.4792 63.1191 77.0688 63.1191H72.9864V66.6474V66.6582Z" fill="#74B34E"/>
<path d="M90.3852 76.7398C90.1152 76.3989 89.7534 75.7171 89.4618 75.3761L88.0308 73.5958L86.6916 75.3491C86.427 75.7117 86.1084 76.4206 85.8438 76.7615C85.482 77.2214 84.969 77.492 84.4344 77.492C83.3868 77.492 82.6092 76.6911 82.6092 75.69C82.6092 75.3004 82.7334 74.9595 82.998 74.5969C83.214 74.283 83.97 73.6499 84.2346 73.309L85.9356 71.2634L84.4776 69.732C84.2076 69.4398 83.43 68.8066 83.214 68.4928C82.971 68.1248 82.8738 67.7622 82.8738 67.3726C82.8738 66.3769 83.7 65.549 84.7422 65.549C85.2768 65.549 85.833 65.7925 86.2002 66.2524C86.4702 66.5934 86.9076 67.3239 87.1992 67.6648L88.3656 69.1043L89.4132 67.6648C89.6832 67.3023 89.9964 66.5934 90.261 66.2524C90.6282 65.7925 91.1358 65.549 91.6704 65.549C92.718 65.549 93.4956 66.3282 93.4956 67.3239C93.4956 67.7135 93.3714 68.0545 93.1068 68.4441C92.8854 68.7579 92.1618 69.3694 91.8918 69.7104L90.4338 71.4637L92.1618 73.2873C92.4264 73.5795 93.1824 74.2127 93.3984 74.5265C93.6414 74.8675 93.7386 75.2571 93.7386 75.6467C93.7386 76.6424 92.9124 77.4974 91.8702 77.4974C91.3356 77.4974 90.7524 77.2052 90.3852 76.7452V76.7398Z" fill="#74B34E"/>
<path d="M95.2938 71.4311C95.2938 67.9029 97.578 65.1971 101.196 65.1971C103.064 65.1971 105.035 66.1009 105.786 67.5349C106.007 67.9462 106.029 68.2654 106.029 68.4332C106.029 69.3802 105.322 70.1594 104.252 70.1594C103.55 70.1594 102.94 69.7698 102.676 69.115C102.433 68.5306 101.974 68.1897 101.169 68.1897C99.6624 68.1897 98.7876 69.4776 98.7876 71.4041C98.7876 73.3305 99.711 74.6401 101.288 74.6401C101.941 74.6401 102.6 74.4724 102.892 73.8609C103.183 73.2548 103.691 72.7191 104.544 72.7191C105.613 72.7191 106.294 73.4496 106.294 74.3966C106.294 74.7592 106.126 75.2949 105.883 75.6358C105.154 76.7289 103.55 77.703 101.342 77.703C97.551 77.703 95.2938 75.0514 95.2938 71.4203V71.4311Z" fill="#74B34E"/>
<path d="M114.588 77.7138C110.678 77.7138 108.589 74.7916 108.589 71.4798C108.589 67.7784 110.921 65.1971 114.372 65.1971C117.823 65.1971 119.74 67.8758 119.74 70.4571C119.74 71.6043 119.135 72.2104 117.914 72.2104H111.915C111.991 73.6931 112.963 74.9107 114.491 74.9107C115.393 74.9107 116.019 74.5968 116.262 74.2018C116.699 73.4442 117.207 73.1087 117.914 73.1087C118.908 73.1087 119.588 73.8176 119.588 74.7429C119.588 75.3274 119.173 75.9334 118.714 76.3501C117.742 77.2268 116.235 77.7138 114.583 77.7138H114.588ZM111.985 69.8239H116.381C116.213 68.4602 115.263 67.8271 114.242 67.8271C113.006 67.8271 112.201 68.7525 111.985 69.8239Z" fill="#74B34E"/>
<path d="M122.677 63.0759C122.677 62.6159 122.553 61.7609 122.553 61.3496C122.553 60.2565 123.428 59.4015 124.47 59.4015C125.512 59.4015 126.392 60.2565 126.392 61.3496C126.392 61.7609 126.268 62.6159 126.268 63.0759V73.8122C126.268 74.2721 126.392 75.1272 126.392 75.5384C126.392 76.6315 125.539 77.4865 124.47 77.4865C123.401 77.4865 122.553 76.6369 122.553 75.5384C122.553 75.1217 122.677 74.2721 122.677 73.8122V63.0759Z" fill="#74B34E"/>
<path d="M129.919 63.0759C129.919 62.6159 129.794 61.7609 129.794 61.3496C129.794 60.2565 130.669 59.4015 131.711 59.4015C132.754 59.4015 133.634 60.2565 133.634 61.3496C133.634 61.7609 133.51 62.6159 133.51 63.0759V73.8122C133.51 74.2721 133.634 75.1272 133.634 75.5384C133.634 76.6315 132.781 77.4865 131.711 77.4865C130.642 77.4865 129.794 76.6369 129.794 75.5384C129.794 75.1217 129.919 74.2721 129.919 73.8122V63.0759Z" fill="#74B34E"/>
<path d="M142.555 77.7138C138.645 77.7138 136.555 74.7916 136.555 71.4798C136.555 67.7784 138.888 65.1971 142.339 65.1971C145.789 65.1971 147.706 67.8758 147.706 70.4571C147.706 71.6043 147.101 72.2104 145.881 72.2104H139.882C139.957 73.6931 140.929 74.9107 142.457 74.9107C143.359 74.9107 143.986 74.5968 144.229 74.2018C144.666 73.4442 145.174 73.1087 145.881 73.1087C146.875 73.1087 147.555 73.8176 147.555 74.7429C147.555 75.3274 147.139 75.9334 146.68 76.3501C145.708 77.2268 144.202 77.7138 142.549 77.7138H142.555ZM139.957 69.8239H144.353C144.185 68.4602 143.235 67.8271 142.214 67.8271C140.978 67.8271 140.173 68.7525 139.957 69.8239Z" fill="#74B34E"/>
<path d="M157.842 75.5438C157.842 75.1271 157.966 74.2776 157.966 73.8176V70.4084C157.966 69.1908 157.237 68.2654 156.119 68.2654C155.488 68.2654 154.737 68.5576 154.273 69.3153V73.8176C154.273 74.2776 154.397 75.1326 154.397 75.5438C154.397 76.6369 153.544 77.4919 152.474 77.4919C151.405 77.4919 150.557 76.6424 150.557 75.5438C150.557 75.1271 150.682 74.2776 150.682 73.8176V69.2395C150.682 68.7795 150.439 67.9245 150.439 67.5132C150.439 66.4201 151.195 65.5651 152.285 65.5651C153.112 65.5651 153.646 66.1225 153.916 66.7827C154.451 65.9547 155.569 65.1971 157.097 65.1971C159.597 65.1971 161.568 67.0479 161.568 69.8997V73.8176C161.568 74.2776 161.692 75.1326 161.692 75.5438C161.692 76.6369 160.817 77.4919 159.77 77.4919C158.722 77.4919 157.853 76.6424 157.853 75.5438H157.842Z" fill="#74B34E"/>
<path d="M170.305 77.492C167.513 77.492 165.958 75.7657 165.958 73.0383V68.5847C165.596 68.6334 165.181 68.6821 164.965 68.6821C164.138 68.6821 163.48 68.0273 163.48 67.221C163.48 66.4147 164.138 65.7383 164.965 65.7383C165.181 65.7383 165.596 65.8086 165.958 65.8628V64.9591C165.958 64.5207 165.834 63.6928 165.834 63.3032C165.834 62.2317 166.687 61.4308 167.681 61.4308C168.674 61.4308 169.528 62.2317 169.528 63.3032C169.528 63.6928 169.403 64.5207 169.403 64.9591V65.8628H169.965C170.305 65.8628 170.959 65.7383 171.277 65.7383C172.103 65.7383 172.735 66.3931 172.735 67.221C172.735 68.049 172.103 68.6821 171.277 68.6821C170.959 68.6821 170.305 68.5847 169.965 68.5847H169.403V73.2819C169.403 73.8663 169.771 74.3046 170.23 74.3046C170.543 74.3046 170.764 74.1369 170.986 73.9421C171.25 73.6985 171.688 73.5254 172.076 73.5254C173.119 73.5254 173.729 74.283 173.729 75.1542C173.729 75.5222 173.583 75.9335 173.291 76.2744C172.784 76.8805 171.715 77.492 170.305 77.492Z" fill="#74B34E"/>
</g>
<defs>
<clipPath id="clip0_68_473">
<rect width="243" height="92" fill="white"/>
</clipPath>
</defs>
</svg>
