<svg width="172" height="124" viewBox="0 0 172 124" fill="none" xmlns="http://www.w3.org/2000/svg">
<g clip-path="url(#clip0_68_264)">
<path d="M140.974 0.487806C141.37 0.106874 141.965 0.00997052 142.462 0.250559C145.082 1.68741 145.318 3.25792 143.201 5.32965C137.155 11.3444 131.175 17.3591 125.061 23.307C123.953 24.3762 124.121 24.8775 125.128 25.8465C135.609 35.7374 146.057 45.6616 156.504 55.6193C157.377 56.4547 157.847 56.555 158.721 55.6193C161.308 52.9127 163.961 50.3398 166.615 47.7C168.563 45.7619 169.773 45.8287 171.587 47.8336C172.128 48.3749 172.141 49.2471 171.617 49.8051L171.587 49.8385C168.16 53.2469 164.801 56.722 161.341 60.097C159.661 61.7343 157.579 62.0016 155.462 61.0994C154.589 60.7318 154.085 60.7987 153.447 61.5004C152.506 62.5363 151.499 63.5053 150.491 64.4409C149.281 65.5436 147.77 65.577 146.762 64.5746C145.754 63.5721 145.821 62.035 146.93 60.8655C147.803 59.9299 148.677 58.9943 149.651 58.1589C150.558 57.3903 150.524 56.9225 149.651 56.0871C144.881 51.6429 140.178 47.1319 135.475 42.6543C131.847 39.2125 128.185 35.7708 124.591 32.2622C123.818 31.5271 123.382 31.4937 122.609 32.2622C119.854 35.0357 117.033 37.7089 114.245 40.4155C112.397 42.1865 110.986 42.387 108.702 41.1172C106.082 39.6803 103.428 38.2435 100.808 36.7398C99.7998 36.1718 98.7584 35.9379 97.6163 35.9379C89.9236 35.9379 82.1973 35.9713 74.5047 35.9379C73.2281 35.9379 72.2876 36.3054 71.4142 37.241C68.5252 40.1816 65.5355 43.0219 62.6801 45.9958C59.8248 48.9363 61.1013 53.3805 64.998 54.383C66.7784 54.8508 68.2901 54.1825 69.6338 53.1132C71.9852 51.2085 74.3031 49.3373 76.621 47.3992C77.528 46.6307 78.4686 46.2631 79.6779 46.2965C83.2387 46.3299 86.8331 46.2965 90.3939 46.3299C92.8797 46.3299 93.686 47.1987 93.518 49.6714C93.4844 50.3398 93.7867 50.6739 94.1898 51.0749C95.8359 52.7122 97.5155 54.3496 99.1615 56.0203C100.505 57.3903 100.606 58.894 99.531 59.9633C98.3889 61.0994 96.9444 60.9992 95.5671 59.6291C93.1149 57.2233 90.6626 54.784 88.244 52.3112C87.6729 51.7098 87.0346 51.5427 86.1948 51.4424C81.8614 50.9412 78.0655 51.81 75.1093 55.2518C74.3367 56.154 73.2617 56.8223 72.254 57.5574C67.9877 60.7653 62.2098 60.1972 58.6154 56.2876C55.1218 52.4783 55.0882 46.6307 58.7162 42.8214C61.7059 39.6803 64.7964 36.6396 67.9541 33.6322C68.9619 32.6966 68.7604 32.2288 67.7526 31.5271C65.6027 30.0234 63.1504 29.2548 60.7654 28.4529C58.3467 27.6175 56.1632 26.4814 54.5844 24.4431C53.7781 23.4072 53.2407 23.6077 52.4008 24.4765C47.1268 29.8229 41.752 35.1025 36.4444 40.3821C35.9405 40.8833 35.4367 41.4179 34.832 41.8189C33.757 42.5206 32.6485 42.2867 31.7751 41.4179C30.9017 40.5491 30.7001 39.4799 31.4056 38.3772C31.7079 37.9093 32.111 37.5418 32.5141 37.1408L51.4603 18.2947C52.6864 17.075 52.6864 15.1002 51.4603 13.8806C48.6049 11.0403 45.7831 8.23342 42.9311 5.39648C40.7812 3.25792 40.882 1.98814 43.3309 0.217144C43.7407 -0.0802502 44.2983 -0.0735671 44.6981 0.240535L44.7485 0.277291C48.8535 3.86941 52.6931 7.789 56.4017 11.7754C58.1485 13.6467 58.4172 16.086 57.4431 18.4584C57.04 19.4275 57.3087 19.9287 57.947 20.597C59.2571 22.0004 60.7351 23.0363 62.6163 23.6378C66.9497 25.0412 71.0816 26.8122 74.1385 30.3876C74.676 30.9891 75.3478 30.8888 75.9861 30.8888C83.3092 30.8888 90.5988 30.9223 97.922 30.8888C99.8367 30.8888 101.55 31.2898 103.196 32.2254C105.413 33.4952 107.697 34.6647 109.881 35.9679C110.788 36.5026 111.292 36.3689 111.997 35.6672C114.349 33.2947 116.734 30.9557 119.152 28.65C119.757 28.082 119.891 27.681 119.522 26.8456C118.481 24.6402 118.783 22.4682 120.563 20.7307C127.047 14.2481 133.564 7.76561 140.114 1.3165L140.977 0.484465L140.974 0.487806Z" fill="black"/>
<path d="M142.294 68.2169C141.051 67.5151 139.943 67.7825 138.969 68.7515C134.837 72.8616 130.638 76.9716 126.539 81.1485C125.666 82.0173 125.263 82.0507 124.356 81.1485C118.813 75.5348 113.17 69.9544 107.56 64.4075C106.082 62.9707 104.603 62.8036 103.461 63.9397C102.319 65.0758 102.454 66.5461 103.932 68.0164L114.11 78.1411C116.495 80.4802 118.88 82.8193 121.198 85.2251C122.743 86.8291 122.71 89.1347 121.232 90.605C119.754 92.1086 117.537 92.1755 115.79 90.7052C115.353 90.3376 114.984 89.9367 114.58 89.5357C111.759 86.7622 108.97 83.9554 106.149 81.1819C104.771 79.8453 103.26 79.7451 102.185 80.8812C101.11 81.9839 101.244 83.4207 102.588 84.8242C102.924 85.1917 103.293 85.5259 103.663 85.8934C106.417 88.6335 109.239 91.3735 111.927 94.147C113.606 95.8845 113.606 98.0899 112.095 99.6604C110.549 101.264 108.231 101.231 106.417 99.5602C106.082 99.2595 105.779 98.9253 105.477 98.6246C102.622 95.7843 99.7998 92.944 96.9444 90.1706C95.6343 88.9008 94.1898 88.834 93.1149 89.9367C92.0735 90.9725 92.1407 92.4762 93.35 93.7794C93.7531 94.2138 94.2234 94.6482 94.6601 95.0826C97.4147 97.8226 100.203 100.563 102.924 103.336C104.301 104.74 104.469 106.377 103.596 107.914C102.722 109.418 101.379 110.019 99.6654 109.852C98.5232 109.718 97.7506 109.05 96.978 108.282C93.9547 105.241 90.9314 102.2 87.8409 99.2261C86.1276 97.5887 83.9105 98.0565 83.3731 100.128C83.0707 101.298 83.5746 102.167 84.3808 102.935C87.5049 106.043 90.629 109.117 93.7195 112.258C95.3656 113.929 95.3991 116.268 93.9211 117.771C92.443 119.275 90.058 119.342 88.3447 117.771C86.3964 115.934 84.5488 113.996 82.634 112.158C82.1637 111.69 82.0965 111.322 82.3653 110.721C85.0863 105.04 81.0888 98.3573 74.5383 97.9897C73.6313 97.9229 73.3289 97.6221 73.161 96.8202C72.4891 93.8462 70.7423 91.7077 67.9205 90.5715C66.98 90.1706 66.7784 89.803 66.98 88.8005C68.3572 82.1509 62.4114 76.6375 55.8273 78.5421C54.7859 78.8429 54.45 78.6424 54.0133 77.7067C51.4938 72.3937 44.8761 70.9569 40.3076 74.5991C39.7365 75.067 39.367 76.2031 38.4264 75.8355C37.6538 75.5013 37.1835 74.5991 36.7804 73.7972C36.3437 72.895 36.0749 71.9259 36.1085 70.9235C36.1421 69.0522 36.0749 67.1476 36.1421 65.2763C36.2093 63.9397 35.7054 62.9373 34.7648 62.0351C32.3461 59.7294 29.9947 57.357 27.6432 54.9845C26.669 54.0155 25.023 53.1801 24.9894 51.9771C24.9558 51.0749 26.5683 50.1393 27.4417 49.2037C27.4753 49.1703 27.5088 49.1369 27.5424 49.07C28.651 47.7668 28.651 46.3968 27.5424 45.3609C26.4675 44.3585 25.1574 44.3919 23.948 45.4946C22.8395 46.5305 21.7981 47.5998 20.7232 48.669C18.9092 50.4735 18.2709 50.4735 16.4233 48.6356C12.5266 44.6592 8.56271 40.6828 4.53162 36.7399C3.2887 35.5035 1.70985 35.5035 0.702078 36.6062C-0.305695 37.6755 -0.23851 39.0789 0.970817 40.2819C5.27065 44.5924 9.57048 48.8695 13.9039 53.1132C15.382 54.5501 17.2296 55.2184 19.2451 54.9511C20.1521 54.8174 20.6896 55.1181 21.2606 55.6862C23.6121 58.0587 25.8628 60.5648 28.4158 62.7034C30.5658 64.5412 31.372 66.5795 31.1368 69.353C30.8009 73.0286 31.7751 76.4036 34.5633 79.0433C35.2351 79.7117 34.8656 80.0124 34.3953 80.5136C32.6821 82.2512 31.7751 84.3229 31.8087 86.3613C31.8087 90.9725 34.7984 94.7484 38.7959 95.3499C40.2068 95.5504 40.7443 96.0182 40.9458 97.3882C41.5505 101.064 44.7082 103.971 48.4705 104.372C49.3775 104.472 49.6127 104.74 49.747 105.608C50.4861 109.952 53.2071 112.659 57.5741 113.327C58.3467 113.461 58.649 113.595 58.7498 114.463C59.1865 118.072 61.2356 120.612 64.6621 121.881C68.0213 123.118 71.1454 122.45 73.7992 120.01C75.1429 118.774 76.4866 117.471 77.6959 116.134C78.4686 115.299 78.9389 115.399 79.6779 116.167C81.2903 117.872 82.97 119.476 84.6496 121.113C87.2362 123.686 90.3267 124.655 93.8203 123.552C97.3811 122.45 99.4974 119.91 100.102 116.268C100.27 115.265 100.572 114.898 101.58 114.764C105.678 114.196 108.702 111.189 109.206 107.112C109.34 106.143 109.575 105.842 110.549 105.742C114.614 105.341 117.906 102.066 118.276 98.0231C118.376 97.1543 118.544 96.8536 119.519 96.7533C123.886 96.2855 127.077 92.9774 127.413 88.6335C127.48 87.5976 127.917 86.8959 128.622 86.1942C133.157 81.75 137.625 77.2723 142.126 72.7947C142.63 72.2935 143.235 71.8257 143.403 71.0906C143.671 69.921 143.436 68.8852 142.294 68.2169ZM42.8942 89.7696C42.2895 90.3711 41.4497 90.605 41.013 90.5715C39.031 90.5047 37.9225 89.803 37.2506 88.433C36.5788 87.063 36.6796 85.6595 37.6874 84.5568C39.6021 82.4851 41.6177 80.4802 43.734 78.5421C45.0777 77.3058 47.3284 77.4728 48.6385 78.6758C50.0494 79.979 50.3517 82.1844 49.0416 83.6212C47.0932 85.7932 44.9769 87.7647 42.8942 89.7696ZM48.101 99.1592C46.6565 98.4909 45.8839 97.3548 45.8839 95.4167C45.8167 94.5479 46.3878 93.6123 47.194 92.8104L55.4577 84.5902C57.3053 82.7858 59.4552 82.719 61.0677 84.3229C62.6801 85.9269 62.5122 88.1657 60.7318 89.9367C57.9436 92.7435 55.1554 95.517 52.3337 98.257C51.1579 99.46 49.7134 99.8944 48.101 99.1592ZM60.8325 107.58C60.1943 108.215 59.3545 108.282 58.5818 108.382C57.1038 108.248 55.928 107.713 55.2562 106.377C54.5843 105.04 54.5172 103.57 55.5249 102.467C57.7084 100.095 59.9927 97.8226 62.3778 95.6506C63.7551 94.3809 65.905 94.6816 67.2151 96.0182C68.5252 97.3548 68.7939 99.4265 67.5174 100.83C65.4011 103.202 63.0832 105.374 60.8325 107.58ZM77.4272 109.15C74.975 111.723 72.4891 114.296 69.8353 116.669C68.3572 118.005 66.2745 117.638 64.8636 116.167C63.4527 114.697 63.2176 112.692 64.6285 111.189C66.98 108.649 69.4658 106.277 71.9516 103.871C72.5563 103.269 73.3625 103.002 74.0008 103.069C75.882 103.035 77.0241 103.837 77.7631 105.207C78.435 106.611 78.435 108.081 77.4272 109.15Z" fill="black"/>
</g>
<defs>
<clipPath id="clip0_68_264">
<rect width="172" height="124" fill="white"/>
</clipPath>
</defs>
</svg>
