<svg width="220" height="49" viewBox="0 0 220 49" fill="none" xmlns="http://www.w3.org/2000/svg">
<g clip-path="url(#clip0_69_37)">
<path d="M3.46539 47.4194C2.4934 47.4194 1.67355 47.0932 0.997378 46.4325C0.321209 45.7718 -0.00842285 44.9606 -0.00842285 44.0072V10.0024C-0.00842285 9.00718 0.355018 8.19595 1.09035 7.57707C1.81723 6.9582 2.74697 6.48149 3.86264 6.1386C4.97832 5.79571 6.21233 5.5699 7.57312 5.44446C8.93391 5.32737 10.244 5.26883 11.4949 5.26883C13.8108 5.26883 15.9407 5.61172 17.8847 6.28914C19.8287 6.96656 21.4937 7.94505 22.8714 9.22462C24.2491 10.5042 25.3226 12.0848 26.1001 13.9833C26.8693 15.8817 27.2581 18.0227 27.2581 20.423C27.2581 22.8232 26.9031 24.9809 26.1931 26.9212C25.4831 28.8531 24.4604 30.509 23.1166 31.8889C21.7811 33.2688 20.1414 34.3226 18.2143 35.0586C16.2872 35.7945 14.0897 36.1625 11.6132 36.1625C9.74531 36.1625 8.20703 36.0036 6.98993 35.6774V43.9905C6.98993 44.9522 6.63494 45.7635 5.92496 46.4325C5.21498 47.0932 4.39513 47.4277 3.45694 47.4277L3.46539 47.4194ZM11.6217 29.2378C12.9571 29.2378 14.1573 29.0203 15.2138 28.5854C16.2703 28.1506 17.1747 27.5317 17.9185 26.7372C18.6707 25.9427 19.2455 25.006 19.6512 23.9355C20.0569 22.865 20.2597 21.6942 20.2597 20.423C20.2597 17.6798 19.4399 15.6308 17.7917 14.2593C16.152 12.8877 14.0474 12.2019 11.4949 12.2019C10.5652 12.2019 9.71996 12.2688 8.96772 12.411C8.21548 12.5532 7.55622 12.6703 6.98993 12.7623V28.644C7.43789 28.8029 8.04644 28.9367 8.81558 29.0621C9.58472 29.1792 10.5229 29.2378 11.6132 29.2378H11.6217Z" fill="white"/>
<path d="M91.3504 46.0645C87.4962 46.0645 84.5126 44.8017 82.4081 42.2676C80.295 39.7419 79.247 35.828 79.247 30.5257V24.7467H76.9987C76.0267 24.7467 75.19 24.4122 74.5053 23.7515C73.8123 23.0908 73.4742 22.2545 73.4742 21.2509C73.4742 20.2473 73.8207 19.4612 74.5053 18.7838C75.1984 18.098 76.0267 17.7634 76.9987 17.7634H79.247V10.1195C79.247 9.15771 79.5935 8.32975 80.2781 7.65233C80.9628 6.97491 81.7995 6.63202 82.7715 6.63202C83.7435 6.63202 84.5718 6.97491 85.2649 7.65233C85.9579 8.33811 86.296 9.15771 86.296 10.1195V17.7634H91.2236C92.1956 17.7634 93.0239 18.1063 93.717 18.7838C94.4101 19.4695 94.7481 20.2891 94.7481 21.2509C94.7481 22.2127 94.4016 23.0406 93.717 23.718C93.0324 24.3955 92.1956 24.7384 91.2236 24.7384H86.296V30.5173C86.296 33.687 86.7524 35.92 87.6653 37.1995C88.5781 38.4875 89.8882 39.1231 91.5871 39.1231C92.1533 39.1231 92.7873 38.9642 93.4719 38.638C94.1649 38.3202 94.8411 37.8268 95.5088 37.1661C96.1766 36.5054 96.8274 35.6523 97.4528 34.6069C98.0783 33.5615 98.6361 32.3405 99.1263 30.9355C99.3714 30.2163 99.8194 29.6643 100.462 29.2796C101.113 28.8949 101.763 28.7109 102.406 28.7109C103.462 28.7109 104.316 29.0538 104.958 29.7312C105.609 30.417 105.93 31.2198 105.93 32.1398C105.93 32.4241 105.913 32.675 105.871 32.8925C105.829 33.1099 105.77 33.3274 105.685 33.5281C104.265 37.2999 102.372 40.3357 99.9969 42.6189C97.6219 44.9104 94.7312 46.0478 91.325 46.0478L91.3504 46.0645Z" fill="white"/>
<path d="M110.401 46.5496C108.373 46.5496 106.649 46.19 105.229 45.4707C103.809 44.7515 102.659 43.6977 101.789 42.3011C100.918 40.9044 100.276 39.1983 99.8701 37.1912C99.4644 35.1756 99.2616 32.8841 99.2616 30.2915V24.7467H97.0133C96.0751 24.7467 95.2553 24.4038 94.5453 23.7264C93.8353 23.0406 93.4803 22.221 93.4803 21.2593C93.4803 20.2975 93.8269 19.4695 94.5115 18.7921C95.2046 18.1063 96.0329 17.7718 97.0049 17.7718H99.2531V10.454C99.2531 9.53406 99.5997 8.74792 100.284 8.09559C100.977 7.44326 101.806 7.1171 102.778 7.1171C103.75 7.1171 104.578 7.44326 105.271 8.09559C105.964 8.74792 106.302 9.53406 106.302 10.454V17.7718H111.23C112.202 17.7718 113.03 18.1063 113.723 18.767C114.416 19.4277 114.754 20.264 114.754 21.2676C114.754 22.2712 114.408 23.0574 113.723 23.7348C113.039 24.4122 112.202 24.7551 111.23 24.7551H106.302V30.233C106.302 33.7623 106.657 36.221 107.367 37.6093C108.077 38.9976 109.1 39.6918 110.444 39.6918C110.849 39.6918 111.247 39.5998 111.627 39.4158C112.007 39.2318 112.396 39.0227 112.785 38.7969C113.174 38.5711 113.554 38.362 113.943 38.178C114.332 37.994 114.763 37.902 115.253 37.902C116.183 37.902 116.977 38.2366 117.628 38.9056C118.279 39.5747 118.6 40.3943 118.6 41.356C118.6 42.2007 118.346 42.9618 117.839 43.6308C117.332 44.2999 116.673 44.8435 115.862 45.27C115.05 45.6965 114.154 46.0143 113.182 46.2402C112.21 46.4576 111.272 46.5747 110.385 46.5747L110.401 46.5496Z" fill="white"/>
<path d="M124.998 17.2198C124.069 17.2198 123.392 16.9606 122.987 16.4337C122.581 15.9152 122.378 15.3297 122.378 14.6858C122.378 14.1672 122.454 13.6989 122.623 13.2975C122.784 12.896 122.961 12.4862 123.139 12.0597C123.316 11.6332 123.494 11.19 123.654 10.7049C123.815 10.2198 123.9 9.64276 123.9 8.95698C123.654 8.83989 123.375 8.68935 123.046 8.50536C122.725 8.32137 122.403 8.10393 122.099 7.84467C121.795 7.58541 121.541 7.24252 121.339 6.82436C121.136 6.4062 121.034 5.88768 121.034 5.28553C121.034 4.28195 121.398 3.43726 122.133 2.75984C122.86 2.07406 123.714 1.73953 124.686 1.73953C126.351 1.73953 127.542 2.32496 128.278 3.48744C129.005 4.64993 129.376 6.3142 129.376 8.48864C129.376 10.0526 129.241 11.399 128.979 12.5197C128.717 13.6404 128.371 14.5436 127.948 15.2294C127.525 15.9152 127.052 16.417 126.545 16.7348C126.038 17.0526 125.522 17.2198 124.99 17.2198H124.998Z" fill="white"/>
<path d="M148.368 46.006C145.528 46.006 143.331 45.9391 141.767 45.7969C140.204 45.6547 139.046 45.3453 138.302 44.8602C137.55 44.3752 137.093 43.6977 136.933 42.8112C136.772 41.9331 136.688 40.7455 136.688 39.2569V7.34289C136.688 6.33931 137.026 5.50299 137.693 4.8423C138.361 4.1816 139.181 3.84708 140.161 3.84708H148.377C150.405 3.84708 152.265 4.14815 153.947 4.7503C155.629 5.35245 157.082 6.18877 158.3 7.2509C159.517 8.31303 160.463 9.57587 161.131 11.0478C161.799 12.5197 162.137 14.1087 162.137 15.8315C162.137 17.9558 161.68 19.7706 160.768 21.2509C159.855 22.7395 158.646 23.902 157.15 24.7467C159.339 25.5496 161.038 26.7037 162.23 28.2091C163.43 29.7145 164.022 31.6296 164.022 33.963C164.022 35.7694 163.667 37.4086 162.957 38.8722C162.247 40.3357 161.224 41.5986 159.88 42.6691C158.545 43.7312 156.896 44.5591 154.953 45.1362C153.009 45.7216 150.811 46.006 148.377 46.006H148.368ZM147.641 21.736C150.076 21.736 151.918 21.2927 153.178 20.4146C154.437 19.5364 155.062 18.006 155.062 15.8399C155.062 14.1171 154.488 12.8375 153.33 12.0179C152.172 11.1983 150.524 10.7802 148.368 10.7802H143.686V21.736H147.641ZM149.585 39.0812C151.859 39.0812 153.668 38.6715 155.029 37.8519C156.389 37.0323 157.066 35.7276 157.066 33.9295C157.066 32.7336 156.812 31.7885 156.305 31.086C155.798 30.3919 155.122 29.8566 154.268 29.497C153.414 29.1374 152.442 28.9032 151.343 28.8112C150.245 28.7192 149.112 28.6607 147.937 28.6607H143.677V38.8973C144.404 39.0143 145.342 39.0812 146.475 39.0812H149.577H149.585Z" fill="white"/>
<path d="M182.084 46.0645C179.971 46.0645 178.094 45.7216 176.455 45.0275C174.815 44.3417 173.429 43.405 172.313 42.2174C171.197 41.0382 170.344 39.6248 169.761 37.994C169.169 36.3632 168.882 34.5986 168.882 32.7085C168.882 29.2461 169.752 26.319 171.502 23.9355C173.243 21.552 175.846 20.0048 179.295 19.2939C180.512 18.2318 182.05 17.6965 183.918 17.6965C185.583 17.6965 187.13 17.9809 188.575 18.5412C190.012 19.1016 191.271 19.9044 192.345 20.9582C193.418 22.0036 194.263 23.2832 194.872 24.7969C195.48 26.3106 195.785 28.0335 195.785 29.9737C195.785 31.6045 195.599 33.1935 195.235 34.7407C197.145 34.7407 198.591 34.4815 199.588 33.963C200.585 33.4444 201.422 32.6834 202.115 31.6798C202.563 31.0609 202.994 30.5173 203.425 30.0323C203.848 29.5472 204.575 29.313 205.589 29.313C206.603 29.313 207.491 29.6559 208.142 30.3417C208.792 31.0275 209.114 31.8053 209.114 32.6667C209.114 33.6452 208.792 34.6487 208.142 35.6691C207.491 36.6894 206.536 37.6093 205.285 38.4289C204.025 39.2485 202.462 39.9259 200.602 40.4612C198.734 40.9881 196.588 41.2557 194.153 41.2557H193.181C192.86 41.2557 192.531 41.2389 192.209 41.1971C190.908 42.8865 189.386 44.1159 187.645 44.902C185.904 45.6882 184.053 46.0729 182.109 46.0729L182.084 46.0645ZM181.594 39.4409C182.692 39.4409 183.707 39.0562 184.636 38.2951C182.566 37.325 180.841 35.9367 179.464 34.1135C178.086 32.2903 177.275 30.1075 177.029 27.5567C176.708 27.8662 176.387 28.3931 176.083 29.129C175.779 29.865 175.626 30.9773 175.626 32.4492C175.626 33.4194 175.779 34.3309 176.083 35.184C176.387 36.037 176.801 36.773 177.334 37.4002C177.858 38.0191 178.492 38.5125 179.219 38.8889C179.945 39.2569 180.74 39.4409 181.594 39.4409ZM188.533 33.6619C188.778 32.5412 188.896 31.4122 188.896 30.2915C188.896 28.368 188.524 26.9211 187.772 25.9594C187.02 24.9976 186.183 24.5125 185.245 24.5125C184.797 24.5125 184.417 24.7049 184.087 25.0812C183.766 25.4659 183.597 25.951 183.597 26.5532C183.597 27.8411 183.994 29.1458 184.78 30.4671C185.575 31.7885 186.817 32.859 188.524 33.6619H188.533Z" fill="white"/>
<path d="M212.571 46.5496C210.829 46.5496 209.325 46.2151 208.066 45.5544C206.806 44.8937 205.784 43.8148 204.989 42.3345C204.195 40.8459 203.62 38.9223 203.256 36.5556C202.893 34.1888 202.707 31.2951 202.707 27.8829C202.707 19.6535 202.842 13.5317 203.104 9.51732C203.366 5.50299 203.518 3.39546 203.561 3.19474C203.645 2.27479 204.009 1.50538 204.659 0.903226C205.31 0.301075 206.096 0 207.034 0C207.973 0 208.826 0.342891 209.502 1.02031C210.17 1.70609 210.508 2.58423 210.508 3.67145C210.508 3.62963 210.466 3.97252 210.39 4.69176C210.305 5.41099 210.212 6.7491 210.119 8.69773C210.018 10.6464 209.925 13.3059 209.849 16.6762C209.764 20.0466 209.731 24.3453 209.731 29.5639C209.731 31.73 209.815 33.4695 209.976 34.7742C210.136 36.0789 210.365 37.0908 210.644 37.8184C210.922 38.5376 211.261 39.0227 211.649 39.2652C212.038 39.5078 212.452 39.6249 212.9 39.6249C213.221 39.6249 213.526 39.5412 213.813 39.3823C214.092 39.2234 214.379 39.0311 214.667 38.8136C214.946 38.5962 215.258 38.4038 215.58 38.2449C215.901 38.086 216.29 38.0024 216.737 38.0024C217.794 38.0024 218.605 38.3369 219.172 38.9976C219.738 39.6583 220.025 40.4528 220.025 41.3728C220.025 42.2927 219.789 43.0287 219.324 43.6894C218.859 44.3501 218.259 44.8937 217.532 45.3118C216.805 45.73 216.002 46.0478 215.132 46.2485C214.261 46.4492 213.416 46.5496 212.604 46.5496H212.571Z" fill="white"/>
<path d="M50.9408 45.7467C51.431 45.8387 51.9128 45.9641 52.3777 46.1398C55.0993 47.1684 57.2461 49.5687 60.4241 48.8829C62.9935 48.3226 65.4108 45.9391 65.377 43.5305C65.377 43.3883 65.3601 42.7359 64.9544 41.8494C63.5514 38.7885 59.4267 38.9725 57.432 36.4719C56.4854 35.2843 56.1896 33.7288 55.6571 32.3154C53.916 27.7073 45.9879 27.1888 44.4919 32.19C44.0354 33.7204 43.7988 35.2509 42.3619 36.2294C41.2632 36.9904 39.877 37.1828 38.5923 37.5675C34.8987 38.6631 34.5353 43.4217 36.53 46.1732C38.4571 48.8327 41.4068 47.8626 43.9594 46.767C46.0724 45.8638 48.5742 45.3202 50.9239 45.7383L50.9408 45.7467Z" fill="#E2580C"/>
<path d="M54.609 8.37992C52.1241 9.04898 51.4818 12.7204 51.1183 14.8196C50.6365 17.6547 50.1717 20.9749 51.4564 23.7264C52.3608 25.6583 54.4907 27.3978 56.739 27.172C59.1647 26.9295 60.348 24.5878 60.9143 22.4719C62.1145 17.9809 60.8129 11.6332 56.6206 8.85663C55.8515 8.34647 55.1838 8.22939 54.609 8.38829V8.37992Z" fill="#E2580C"/>
<path d="M46.2246 9.46714C48.5236 10.1362 49.0476 13.5567 49.3434 15.5137C49.7407 18.1565 50.1041 21.2425 48.8616 23.7766C47.9826 25.5496 45.9795 27.1302 43.8918 26.8793C41.6435 26.6117 40.5955 24.4122 40.1053 22.4385C39.0741 18.2485 40.4011 12.3775 44.3482 9.87694C45.0751 9.41696 45.6921 9.3166 46.2246 9.47551V9.46714Z" fill="#E2580C"/>
<path d="M34.7804 20.7909C32.6927 21.4683 32.3039 24.5376 32.0926 26.2939C31.8053 28.6607 31.5517 31.4206 32.7688 33.6284C33.6225 35.1756 35.5073 36.5054 37.4175 36.1959C39.4713 35.8698 40.3757 33.871 40.7645 32.098C41.5928 28.3262 40.2067 23.1577 36.5131 21.0836C35.8369 20.6989 35.2622 20.6404 34.7804 20.7993V20.7909Z" fill="#E2580C"/>
<path d="M66.6956 21.3094C67.8958 21.6774 68.2 23.6428 68.6057 26.2604C69.0283 28.9534 69.3833 31.4289 68.2 34.1386C67.6676 35.368 67.1097 36.6475 65.8166 37.1744C63.8641 37.9773 61.1594 36.681 59.9254 34.8829C57.4912 31.3453 60.7199 25.7754 63.2556 23.1911C63.9993 22.4301 65.47 20.9331 66.6956 21.3094Z" fill="#E2580C"/>
</g>
<defs>
<clipPath id="clip0_69_37">
<rect width="220" height="49" fill="white"/>
</clipPath>
</defs>
</svg>
