<svg width="83" height="73" viewBox="0 0 83 73" fill="none" xmlns="http://www.w3.org/2000/svg">
<g clip-path="url(#clip0_81_12)">
<path d="M82.9999 53.4509C82.7898 54.2616 82.6533 55.1027 82.3566 55.8807C80.9074 59.6855 78.1694 62.0063 74.1491 62.4967C70.2413 62.9739 67.0701 61.4681 64.7199 58.2691C64.5769 58.0751 64.4383 57.879 64.2693 57.6415C63.6065 57.9226 62.9674 58.2015 62.3219 58.4652C61.4165 58.8335 60.7515 58.6373 60.4764 57.9313C60.2078 57.2427 60.5175 56.6674 61.371 56.286C62.2331 55.9003 63.0996 55.5211 63.9617 55.1354C65.0361 54.656 65.5278 54.8282 66.0564 55.872C67.6441 58.9947 70.6941 60.6182 74.0819 60.1432C77.2705 59.6942 79.8893 57.173 80.4525 53.8345C80.9919 50.642 79.8547 48.0706 77.2575 46.1747C76.0358 45.2834 75.973 45.0633 76.6185 43.7144C78.0156 40.7965 77.7817 37.9788 75.7932 35.4488C73.8263 32.9449 71.1555 31.997 68.0665 32.7401C64.9603 33.4876 63.0043 35.5338 62.3046 38.6936C62.1595 39.3452 62.1985 40.0447 62.1963 40.7202C62.192 41.6987 61.8605 42.141 60.8923 42.2108C56.4885 42.5224 52.1671 43.2851 47.9106 44.4575C47.3257 44.6188 46.951 44.9108 46.6304 45.4403C44.0939 49.633 38.8605 51.2478 34.2986 49.243C31.2313 47.8962 28.1814 46.5146 25.1445 45.1004C24.5293 44.8127 24.1892 44.9391 23.769 45.4033C20.6476 48.8485 21.2952 54.3313 25.1553 56.9681C26.3835 57.8071 26.4485 58.0555 25.7813 59.3565C24.3192 62.2112 24.7437 65.6412 26.8557 68.0187C28.985 70.4158 32.3815 71.2395 35.3687 70.078C38.3189 68.9317 40.2273 66.0836 40.2165 62.8388C40.2121 61.2349 40.4461 60.9277 41.8584 60.8427C46.4073 60.5681 50.8457 59.6921 55.2148 58.4281C56.4257 58.0773 57.0929 58.2756 57.3225 59.0514C57.5499 59.825 57.0842 60.372 55.8798 60.7163C51.8487 61.8691 47.7633 62.7451 43.5783 63.0894C43.2837 63.1134 42.9913 63.17 42.688 63.2136C42.5169 64.0548 42.4043 64.8872 42.1768 65.687C40.8858 70.2283 36.5405 73.3141 31.9657 72.9741C27.1676 72.6167 23.3747 69.0799 22.6621 64.3446C22.4 62.6034 22.6079 60.9298 23.2253 59.3064C23.3964 58.8596 23.3682 58.6112 22.9827 58.2778C18.7977 54.6364 18.2345 48.7025 21.6223 44.2919C21.7501 44.1241 21.8649 43.9454 22.0231 43.7166C19.7573 42.6945 17.5435 41.6943 15.3297 40.6962C14.1708 40.1732 13.7982 39.6088 14.1167 38.857C14.4329 38.1096 15.1239 37.9984 16.272 38.5149C22.4281 41.2912 28.5843 44.0674 34.7361 46.8502C39.1876 48.8638 43.3357 47.2991 45.3264 42.8362C47.8001 37.288 50.2717 31.7377 52.7433 26.1895C54.6603 21.8857 53.1267 17.6777 48.8702 15.7448C39.5731 11.5259 30.2674 7.32662 20.953 3.1448C16.7723 1.26853 12.6025 2.8833 10.7093 7.09127C8.17493 12.731 5.66004 18.3794 3.16031 24.0365C1.2866 28.2772 2.91987 32.5026 7.12435 34.3876C8.18359 34.8626 9.245 35.3355 10.2977 35.828C11.0841 36.1963 11.3592 36.8021 11.0776 37.458C10.8025 38.0987 10.1375 38.3253 9.35331 37.981C7.99297 37.3861 6.61748 36.813 5.30046 36.1287C0.810053 33.8035 -1.23478 28.3251 0.771062 23.666C3.38776 17.5883 6.07377 11.539 8.8551 5.53535C11.0949 0.697589 16.7853 -1.31161 21.7198 0.891535C29.4399 4.33898 37.1362 7.83655 44.8434 11.3145C46.5676 12.0925 48.2962 12.8574 50.0096 13.6549C55.2127 16.076 57.3138 21.6982 54.9787 26.9762C52.9382 31.5895 50.8739 36.1919 48.8204 40.7987C48.6904 41.0907 48.5756 41.3914 48.4543 41.6878C52.2277 41.0406 55.96 40.3999 59.7442 39.7527C59.8655 39.0946 59.963 38.3144 60.158 37.5626C61.423 32.7009 66.4311 29.4016 71.2399 30.2384C76.6076 31.1733 80.2381 35.7168 79.7615 40.9817C79.6727 41.9689 79.3196 42.9277 79.129 43.9083C79.0814 44.1502 79.0944 44.5403 79.2438 44.6667C81.3103 46.4035 82.5039 48.611 82.8851 51.2805C82.8959 51.3567 82.9588 51.4243 82.9956 51.4962V53.4531L82.9999 53.4509Z" fill="black"/>
<path d="M19.3805 18.7103C17.0259 18.7038 15.1976 16.8363 15.215 14.4523C15.2323 12.1358 17.0908 10.2639 19.3848 10.253C21.6831 10.2421 23.6196 12.1816 23.6196 14.4958C23.6196 16.8297 21.7221 18.7147 19.3805 18.7082V18.7103ZM19.3696 16.3394C20.3985 16.3547 21.2368 15.5375 21.2412 14.5111C21.2477 13.4847 20.418 12.6501 19.3956 12.6523C18.4057 12.6523 17.5977 13.4455 17.5696 14.4457C17.5392 15.4874 18.3364 16.3263 19.3696 16.3416V16.3394Z" fill="black"/>
<path d="M31.7535 37.0154C31.747 34.6553 33.6099 32.7616 35.9407 32.7616C38.2498 32.7616 40.1668 34.7011 40.1538 37.0197C40.1408 39.3231 38.2736 41.1972 35.9753 41.2125C33.6099 41.2277 31.7578 39.3863 31.7513 37.0154H31.7535ZM35.9147 38.835C36.9457 38.8437 37.7775 38.0265 37.7775 37.0001C37.7775 35.9716 36.9501 35.15 35.9212 35.1565C34.9247 35.1631 34.1276 35.9519 34.1038 36.9522C34.0799 37.9938 34.8792 38.8263 35.9125 38.835H35.9147Z" fill="black"/>
<path d="M29.0241 20.7653C29.0133 18.4205 30.887 16.5137 33.2178 16.4985C35.5334 16.4832 37.4266 18.3965 37.4223 20.7479C37.4179 23.0709 35.5897 24.9232 33.2719 24.9515C30.926 24.9798 29.0328 23.1166 29.022 20.7631L29.0241 20.7653ZM35.0503 20.713C35.0395 19.6823 34.1861 18.8411 33.181 18.8738C32.191 18.9043 31.4047 19.7215 31.3961 20.7195C31.3896 21.7568 32.2127 22.6023 33.2265 22.6002C34.2402 22.598 35.059 21.7503 35.0482 20.713H35.0503Z" fill="black"/>
<path d="M22.1401 26.5423C24.4817 26.551 26.3468 28.4556 26.3121 30.8069C26.2796 33.1299 24.4211 34.9888 22.1271 34.9931C19.8072 34.9996 17.9075 33.0885 17.9075 30.7503C17.9075 28.4055 19.7898 26.5336 22.1401 26.5401V26.5423ZM22.1271 28.9198C21.1025 28.9132 20.2534 29.7522 20.2599 30.7655C20.2664 31.7832 21.1177 32.6135 22.1423 32.6004C23.13 32.5895 23.9467 31.7788 23.9683 30.7917C23.99 29.7784 23.1539 28.9263 22.1271 28.9198Z" fill="black"/>
</g>
<defs>
<clipPath id="clip0_81_12">
<rect width="83" height="73" fill="white"/>
</clipPath>
</defs>
</svg>
