<svg width="150" height="149" viewBox="0 0 150 149" fill="none" xmlns="http://www.w3.org/2000/svg">
<g clip-path="url(#clip0_68_248)">
<path d="M68.2165 108.294C65.4562 100.944 59.9941 96.0242 53.3575 92.2172C52.5059 91.7194 51.7717 91.1337 51.1257 90.3723C47.4843 86.1846 43.8136 81.9969 40.1723 77.8092C39.1151 76.5792 37.9111 75.4664 36.3254 75.0271C35.2682 74.7343 35.1507 74.1486 35.1507 73.2408C35.1801 67.1203 35.2095 60.9705 35.1507 54.8501C35.1214 51.2188 32.8896 48.2317 29.5713 47.0604C26.2236 45.889 22.5822 46.9139 20.1742 49.7253C19.91 50.0181 19.7925 50.4867 19.2933 50.6624C19.2052 50.4867 19.0877 50.3109 19.029 50.1352C16.8853 45.069 11.8931 42.6677 6.90094 44.2198C1.90878 45.8011 -0.910332 50.6331 0.264296 55.9629C2.1437 64.4847 4.16993 72.9772 6.04934 81.5283C7.51762 88.2931 9.01528 95.0285 12.6273 101.032C14.9178 104.868 17.3551 108.646 19.7338 112.424C20.6735 113.917 21.7894 114.268 23.0227 113.507C24.2854 112.716 24.4616 111.545 23.4926 109.993C21.6719 107.064 19.8219 104.136 17.9718 101.237C15.5932 97.4884 13.567 93.535 12.5392 89.2009C9.77878 77.5749 7.13587 65.9489 4.52232 54.2936C4.16993 52.683 4.78661 51.2188 5.87314 49.9888C7.31206 48.4074 9.13274 47.8803 11.1883 48.4074C13.4495 48.9639 14.6241 50.6038 15.2408 52.7709C18.2655 63.5769 21.3195 74.3536 24.3442 85.1303C24.7847 86.741 25.5188 88.2052 26.6347 89.4644C29.2482 92.4808 31.8031 95.5556 34.3872 98.6012C35.7087 100.153 37.0008 101.735 38.381 103.257C39.2032 104.165 40.554 104.195 41.4056 103.462C42.316 102.701 42.4922 101.442 41.758 100.446C41.3175 99.8019 40.7596 99.2455 40.2604 98.6598C36.7659 94.5307 33.242 90.4308 29.7768 86.2724C28.0736 84.2225 28.3379 81.4405 30.2467 79.8884C32.2142 78.2777 34.8277 78.5413 36.6484 80.5619C37.9699 82.0554 39.2326 83.6075 40.6128 85.0718C44.9002 89.728 48.424 95.1164 54.3265 98.1912C57.175 99.6555 59.3774 102.174 61.2862 104.78C66.1022 111.369 66.3078 118.398 62.8426 125.572C60.8457 129.643 59.8473 133.86 59.9354 138.37C59.9648 140.068 59.906 141.767 59.9648 143.495C59.9941 144.314 59.7005 144.578 58.8782 144.578C51.3019 144.549 43.7549 144.549 36.1785 144.578C35.415 144.578 35.1507 144.373 35.1801 143.612C35.2388 141.679 35.092 139.717 35.2095 137.784C35.7381 130.258 32.8015 123.932 28.5728 118.017C27.7506 116.875 26.576 116.611 25.5188 117.256C24.4323 117.929 24.1386 119.188 24.8434 120.418C25.6656 121.795 26.5466 123.142 27.3982 124.518C29.2189 127.388 30.3348 130.521 30.5991 133.948C30.8927 137.843 30.7165 141.737 30.7165 145.632C30.7165 146.95 30.9221 148.092 31.9793 149H63.0482C64.1641 148.268 64.5458 147.214 64.5164 145.896C64.4577 143.407 64.5752 140.917 64.4871 138.458C64.3109 134.563 65.2506 130.99 66.9538 127.505C69.8904 121.209 70.6539 114.825 68.2165 108.294ZM29.8356 74.9979C28.7197 75.3493 27.78 76.0521 26.7228 76.9599C24.5497 69.6388 21.9362 62.5519 22.7878 54.8208C23.0227 52.6537 24.6966 50.9552 26.8109 51.0138C28.9546 51.0723 30.6872 52.8294 30.7165 55.1136C30.7459 59.2427 30.7165 63.3719 30.7165 67.501C30.7165 69.5509 30.6872 71.5716 30.7459 73.6215C30.7753 74.3536 30.5991 74.7636 29.8356 74.9979Z" fill="black"/>
<path d="M149.648 50.8381C148.326 46.7382 144.832 43.9269 140.75 43.7219C136.462 43.4876 132.733 45.8597 130.971 49.9888C130.854 50.2231 130.883 50.5745 130.472 50.5745C129.796 49.6081 129.033 48.7296 128.064 48.0853C125.303 46.299 122.396 46.0061 119.46 47.4704C116.523 48.9346 114.879 51.3945 114.849 54.7036C114.791 60.9413 114.791 67.1496 114.82 73.3872C114.82 74.2365 114.614 74.705 113.763 74.9393C112.236 75.4079 111.032 76.3742 109.975 77.5749C106.921 81.0598 103.867 84.5447 100.842 88.0588C99.1093 90.1087 97.2299 91.8658 94.8512 93.3007C89.0075 96.8149 84.3383 101.53 81.8422 108.031C79.2581 114.796 80.1097 121.414 83.2518 127.769C84.8082 130.873 85.6304 134.094 85.5423 137.579C85.4542 140.303 85.5717 143.026 85.513 145.749C85.4836 147.067 85.836 148.121 86.9812 148.854H118.05C119.078 147.975 119.342 146.833 119.284 145.486C119.195 142.47 119.284 139.453 119.254 136.437C119.225 131.956 120.399 127.827 122.837 124.02C126.977 117.548 130.942 110.93 135.2 104.546C139.957 97.4299 142.336 89.4937 143.921 81.2355C144.156 79.9762 143.451 78.8927 142.247 78.5706C141.161 78.2777 140.074 78.8927 139.663 80.152C139.428 80.8255 139.282 81.5576 139.135 82.2604C137.725 90.0502 134.818 97.2249 130.354 103.814C126.419 109.671 122.807 115.733 119.019 121.678C116.905 125.016 115.495 128.589 115.025 132.513C114.614 135.998 114.879 139.512 114.849 143.026C114.849 144.139 114.585 144.49 113.41 144.49C107.009 144.432 100.607 144.49 94.2346 144.432C92.8837 144.432 91.1512 145.017 90.2996 144.168C89.5361 143.377 90.0353 141.65 90.094 140.361C90.2996 134.885 89.2424 129.76 86.8638 124.723C83.3693 117.343 84.2209 110.169 89.5361 103.726C92.2964 100.358 95.7028 97.7813 99.491 95.7021C100.284 95.2628 100.93 94.765 101.517 94.0914C105.423 89.6109 109.329 85.1303 113.234 80.6498C115.084 78.512 117.727 78.1899 119.724 79.8298C121.721 81.4698 121.868 84.2518 120.047 86.4482C118.814 87.9417 117.522 89.4059 116.259 90.8994C113.645 93.9743 111.032 97.0785 108.418 100.153C107.684 101.032 107.537 101.998 108.183 102.965C108.771 103.843 109.652 104.048 110.621 103.843C111.296 103.697 111.678 103.199 112.089 102.701C115.906 98.2206 119.724 93.7107 123.542 89.2302C124.54 88.0588 125.215 86.7117 125.626 85.2475C126.713 81.3819 127.8 77.4871 128.886 73.6215C130.912 66.4761 132.909 59.3306 134.965 52.1852C135.846 49.1396 138.547 47.6168 141.543 48.3489C144.303 49.0224 146.006 51.8338 145.36 54.7915C144.156 60.297 142.894 65.7732 141.66 71.2787C141.308 72.8015 141.895 74.0022 143.128 74.3243C144.509 74.6757 145.566 73.9729 145.977 72.333C146.388 70.7809 146.682 69.1995 147.063 67.6474C148.091 63.5476 148.767 59.3892 150 55.3479V51.5409C149.648 51.4531 149.736 51.1016 149.648 50.8381ZM124.099 74.1779C123.835 75.0564 123.571 75.935 123.277 76.9599C122.279 76.14 121.427 75.4371 120.429 75.115C119.46 74.8222 119.195 74.3243 119.195 73.3579C119.254 67.3253 119.225 61.2927 119.225 55.2601C119.225 53.503 119.988 52.1559 121.574 51.3945C123.042 50.6917 124.423 50.9259 125.685 51.9216C126.742 52.7709 127.065 53.913 127.183 55.2308C127.888 61.8198 125.979 67.9989 124.099 74.1779Z" fill="black"/>
<path d="M92.0615 78.3949C88.8019 78.3949 86.0121 76.9892 83.4867 75.7007C82.0771 74.9686 80.7263 74.295 79.3461 73.8558C78.6707 73.6508 77.9659 73.5043 77.1437 73.3872L76.8207 73.3286C73.2381 72.9772 69.7729 74.0607 67.453 75.0564C66.3371 75.525 65.045 75.0271 64.5458 73.9143C64.076 72.8015 64.5752 71.513 65.6911 71.0152C68.5689 69.7852 72.9738 68.4088 77.6429 68.9652L77.9659 68.9945L78.0247 69.0238C78.9644 69.1702 79.8454 69.3459 80.6676 69.6095C82.4002 70.1659 83.9565 70.9566 85.4836 71.718C88.4201 73.2115 90.9456 74.5 93.9115 73.6801C97.5822 72.6551 100.724 68.9652 100.519 65.9196V65.8904C100.519 65.8025 100.46 64.9825 99.8434 63.8404C98.6981 61.6441 96.3489 60.7655 93.6472 59.7699C91.1511 58.8328 88.3614 57.7785 86.3058 55.465C84.7201 53.6787 83.9272 51.5995 83.1637 49.5788C82.8994 48.9053 82.6645 48.261 82.4002 47.6461C80.8144 44.044 76.6151 42.7262 73.3555 43.0191C68.2753 43.4876 67.0419 47.0604 66.807 48.1439C66.7189 48.5246 66.6308 48.876 66.572 49.2567C66.0141 51.8045 65.3974 54.6744 62.6664 56.7828C60.9632 58.1006 58.9663 58.7449 57.175 59.3306C56.5877 59.5063 56.0591 59.682 55.5305 59.887C53.2694 60.707 52.3297 62.4641 51.9773 63.8111C51.2138 66.476 51.9186 69.7852 53.7099 71.9815C55.002 73.5629 56.4996 74.1193 58.5846 73.7972C59.7886 73.6215 60.9045 74.4414 61.11 75.6421C61.2862 76.8428 60.464 77.9556 59.26 78.1606C55.5893 78.717 52.5646 77.5749 50.2741 74.7636C47.6018 71.4544 46.574 66.681 47.7193 62.6398C48.6296 59.3306 50.8908 56.9 54.0329 55.7579C54.6496 55.5236 55.2369 55.3479 55.8242 55.1429C57.3806 54.6451 58.8489 54.1765 59.9354 53.3273C61.345 52.2437 61.7267 50.7209 62.2553 48.3489C62.3434 47.9389 62.4315 47.5582 62.5196 47.1482C63.6355 42.4041 67.6586 39.1535 72.9738 38.6557C78.7882 38.1286 84.3383 41.0863 86.4526 45.889C86.7757 46.5918 87.0399 47.3239 87.3042 48.0268C87.9796 49.7545 88.5963 51.3945 89.6535 52.5659C90.9749 54.0594 93.0599 54.8501 95.2623 55.67C98.3457 56.8414 101.87 58.1592 103.808 61.8198C104.747 63.6354 104.924 65.0997 104.982 65.6561C105.335 70.8102 100.93 76.3157 95.1449 77.9556C94.0583 78.2777 93.0305 78.3949 92.0615 78.3949Z" fill="black"/>
<path d="M84.72 37.9236C80.1977 37.9236 76.0865 34.6437 74.1777 31.071C71.388 25.8583 71.7991 19.7671 72.4452 13.9395C72.915 9.83965 73.796 2.16709 79.4636 0.292874C80.6382 -0.11711 82.5176 -0.292818 84.8962 1.11284C93.471 6.17908 96.7306 18.3907 94.8806 27.2933C93.2654 35.1123 89.2423 37.3379 86.1589 37.8064C85.6891 37.8943 85.1899 37.9236 84.72 37.9236ZM81.2255 4.39272C81.108 4.39272 80.9906 4.422 80.8731 4.45129C77.8778 5.44696 77.2024 11.3039 76.85 14.4373C76.2921 19.5621 75.9103 24.8919 78.1127 28.9918C79.4636 31.5102 82.5176 33.9409 85.5129 33.4723C87.2455 33.2088 89.5066 31.7445 90.6225 26.4147C92.1202 19.1814 89.5066 8.90254 82.6938 4.91984C82.2239 4.65628 81.6954 4.39272 81.2255 4.39272Z" fill="black"/>
<path d="M63.7823 38.5971C63.6061 38.5971 63.4006 38.5971 63.2244 38.5678C60.2878 38.3921 56.3234 36.6643 54.121 29.4896C51.6543 21.3778 53.6218 9.7225 61.1688 4.24628C62.872 3.01633 64.5752 2.57706 66.249 2.98705C71.7698 4.27557 73.2381 11.3332 74.0309 15.1402C75.0881 20.2357 76.0278 26.0926 73.8841 31.2174C72.2984 34.9365 68.3634 38.5971 63.7823 38.5971ZM65.045 7.23331C64.6339 7.23331 64.1347 7.52616 63.7529 7.78972C57.8504 12.036 56.3528 21.6706 58.3203 28.1718C59.4949 32.0081 61.2275 34.0287 63.4886 34.1458C66.2197 34.3216 68.7745 31.8617 69.8023 29.4603C71.4468 25.5069 70.6539 20.6457 69.6848 15.9894C69.1269 13.3538 68.011 7.87757 65.2212 7.23331H65.045Z" fill="black"/>
<path d="M50.2153 53.4151C48.6883 53.4151 47.1613 53.0051 45.6636 52.2437C43.843 51.2773 42.2866 49.8131 41.2001 48.1146C38.5571 43.839 38.6159 38.7142 38.9389 33.8237C39.1445 30.3096 39.5556 23.8084 44.5184 21.8463C45.5462 21.4363 47.2494 21.1728 49.4225 22.2563C57.1163 26.0633 60.4346 36.1665 59.2306 43.7805C58.4084 49.0224 55.8242 52.3901 52.0066 53.2101C51.4487 53.3565 50.832 53.4151 50.2153 53.4151ZM46.4565 25.8876C46.3684 25.8876 46.251 25.8876 46.1922 25.9462C43.843 26.854 43.5199 31.7445 43.3731 34.0873C43.1088 38.275 43.0207 42.6384 44.9882 45.8011C46.1922 47.7046 48.747 49.4617 51.1257 48.9346C52.4765 48.6417 54.2384 47.3825 54.9432 43.1069C55.8829 37.2207 53.2987 29.0796 47.5137 26.2097C47.1613 26.034 46.7795 25.8876 46.4565 25.8876Z" fill="black"/>
<path d="M101.37 53.093C97.6703 53.093 93.7353 50.9552 91.5916 48.1732C86.1296 41.057 91.621 29.6946 96.3782 24.2184C97.8465 22.5199 100.93 18.9472 104.483 19.8257C107.978 20.7043 108.859 24.8627 109.975 30.1339C111.002 34.878 112.03 39.7978 109.975 45.4205C109.094 47.8218 108.007 50.8381 104.953 52.3023C103.837 52.8295 102.604 53.093 101.37 53.093ZM103.367 24.072C103.074 24.072 102.134 24.3355 99.7553 27.0883C95.7322 31.7153 91.4742 40.7642 95.1155 45.479C97.0536 47.9975 100.901 49.3739 103.044 48.3489C104.483 47.6754 105.129 45.8597 105.834 43.9269C107.478 39.4757 106.597 35.3758 105.687 31.0417C105.217 28.7868 104.806 26.854 104.278 25.5069C103.778 24.2184 103.426 24.072 103.426 24.072C103.426 24.072 103.397 24.072 103.367 24.072Z" fill="black"/>
</g>
<defs>
<clipPath id="clip0_68_248">
<rect width="150" height="149" fill="white"/>
</clipPath>
</defs>
</svg>
