<svg width="35" height="35" viewBox="0 0 35 35" fill="none" xmlns="http://www.w3.org/2000/svg">
<g clip-path="url(#clip0_78_12)">
<path d="M34.6081 -6.07283e-05C34.4513 -6.07283e-05 34.2945 -6.07283e-05 34.1378 -6.07283e-05C33.883 0.238323 33.6152 0.463645 33.3833 0.721622C33.1318 0.999193 32.8378 1.15594 32.4786 1.2735C30.7312 1.8515 28.9348 2.25316 27.1645 2.73646C25.4237 3.21323 24.1009 4.17656 23.4869 5.94974C23.4771 5.97587 23.4281 5.98893 23.3921 6.01179C23.1831 5.45665 22.9284 4.93416 22.6017 4.44433C22.4156 4.16676 22.0563 3.87613 22.0824 3.62468C22.1118 3.36017 22.5103 3.13812 22.7454 2.89647C23.0917 2.54053 23.1243 2.18785 22.8434 1.90375C22.5691 1.62618 22.1935 1.65557 21.8538 1.99518C20.5735 3.272 19.2899 4.55209 18.0161 5.83545C17.2387 6.62244 16.677 7.54659 16.2883 8.58503C16.0792 9.14344 15.9747 9.7247 15.8474 10.3386C15.622 10.0872 15.4358 9.85206 15.2203 9.64959C14.8414 9.28712 14.554 9.29365 14.1784 9.66592C13.3194 10.5182 12.4604 11.3738 11.6112 12.2359C10.6542 13.209 10.001 14.3618 9.66454 15.6876C9.57962 16.0239 9.5045 16.3668 9.41958 16.7391C9.23341 16.5235 9.0897 16.3374 8.92966 16.1709C8.44954 15.6745 8.17518 15.6745 7.68852 16.1578C6.92425 16.9219 6.1567 17.6828 5.39569 18.4502C2.47902 21.3827 2.1818 25.6866 4.67714 28.975C4.84698 29.1971 4.80779 29.2983 4.62815 29.4747C3.64504 30.4412 2.67173 31.4209 1.69515 32.3973C1.1987 32.8937 0.692443 33.3835 0.205788 33.8929C-0.176351 34.288 -0.0130437 34.8791 0.496475 34.9869C0.783895 35.0489 0.989662 34.8954 1.18236 34.7028C2.59007 33.2921 4.00758 31.8944 5.39896 30.4674C5.67005 30.1898 5.82029 30.1637 6.13711 30.4021C8.99498 32.5671 12.9927 32.5149 15.782 30.2616C16.948 29.3212 17.9279 28.175 18.9926 27.1267C19.2833 26.8394 19.2703 26.5487 18.9796 26.2287C18.764 25.9903 18.5093 25.7879 18.2578 25.556C18.3623 25.5266 18.4472 25.4907 18.5354 25.4776C19.9986 25.2588 21.3083 24.6743 22.396 23.6849C23.4346 22.7411 24.4079 21.719 25.3976 20.723C25.685 20.4324 25.6654 20.1548 25.391 19.8217C25.1853 19.5703 24.9174 19.3842 24.6398 19.1588C24.7705 19.1229 24.8554 19.087 24.9436 19.0739C26.3382 18.8617 27.6022 18.3294 28.6539 17.402C30.2151 16.0239 31.6261 14.4826 33.1024 13.0131C33.3506 12.7682 33.3278 12.409 33.1057 12.1673C32.8705 11.9093 32.5112 11.8734 32.2303 12.1151C31.9756 12.3339 31.7502 12.5918 31.502 12.8237C31.4399 12.8825 31.3942 13.0262 31.257 12.9119C30.5711 12.3371 29.7938 11.9126 28.9283 11.5697C29.0066 11.5207 29.036 11.4946 29.0687 11.4848C30.6365 10.9166 31.6098 9.79654 32.116 8.22909C32.6484 6.57673 32.9587 4.86559 33.4845 3.21323C33.736 2.4295 34.0104 1.70781 34.6799 1.19186C34.7975 1.10042 34.8857 0.969803 34.987 0.855509V0.385272C34.8563 0.254651 34.7257 0.12403 34.595 -0.0065918L34.6081 -6.07283e-05ZM18.9665 6.68122C19.5838 6.04771 20.2273 5.44032 20.8348 4.79701C21.0601 4.55863 21.1646 4.59455 21.341 4.83946C23.1831 7.39311 22.9871 10.9166 20.8478 13.2319C20.1783 13.9568 19.4499 14.6328 18.7608 15.3414C18.6007 15.508 18.5321 15.4622 18.4145 15.3022C17.5294 14.1038 17.0722 12.7714 17.082 11.2758C17.1048 9.49611 17.7221 7.95805 18.9665 6.68122ZM18.8424 17.5326C18.6758 17.6404 18.4995 17.6534 18.3068 17.6273C18.4439 17.4771 18.5452 17.1571 18.8424 17.5326ZM17.3269 16.7162C17.3596 16.5301 17.3073 16.3276 17.4608 16.1447C17.8528 16.4778 17.4772 16.5627 17.3269 16.7162ZM12.431 13.2254C13.1005 12.5167 13.8158 11.8473 14.4886 11.1452C14.6813 10.9427 14.763 11.0146 14.8904 11.1909C15.7526 12.3861 16.2066 13.7087 16.1903 15.1879C16.174 16.9415 15.5632 18.4567 14.358 19.727C13.7146 20.4063 13.0287 21.0496 12.3787 21.7223C12.1893 21.9215 12.1174 21.8594 11.977 21.6766C10.0891 19.1686 10.2753 15.5047 12.4277 13.2254H12.431ZM12.431 23.9559C12.2513 24.0539 12.0782 24.0833 11.8561 24.0506C12.039 23.8514 12.1697 23.564 12.431 23.9559ZM10.9155 23.1232C10.9514 22.9403 10.8991 22.7346 11.0494 22.5615C11.4511 22.8619 11.0886 22.9697 10.9155 23.1232ZM5.97706 28.126C5.79089 28.3187 5.71904 28.2729 5.57533 28.0868C3.6875 25.5952 3.8704 21.9117 6.02279 19.6356C6.69235 18.927 7.40437 18.2575 8.08046 17.5555C8.26663 17.3595 8.34828 17.4118 8.4822 17.5946C9.33466 18.7768 9.79192 20.0862 9.78212 21.5525C9.77559 23.3354 9.15502 24.8735 7.92695 26.1601C7.29005 26.8296 6.61723 27.4631 5.97706 28.1293V28.126ZM17.402 26.9537C16.579 27.7113 15.8604 28.5799 14.9884 29.2852C13.806 30.2388 12.3983 30.7156 10.8828 30.7188C9.40978 30.7188 8.0772 30.2812 6.89485 29.3995C6.7936 29.3244 6.6009 29.2755 6.79687 29.0893C7.76365 28.1848 8.59325 27.1267 9.6874 26.3626C11.9639 24.7723 15.1027 24.8278 17.3465 26.4736C17.5621 26.6304 17.6503 26.7218 17.3988 26.9537H17.402ZM23.8167 20.5369C22.9806 21.3173 22.2457 22.2088 21.3443 22.9207C19.0286 24.7527 15.7134 24.7853 13.339 23.035C13.1169 22.8717 13.0842 22.7803 13.2998 22.5811C14.0967 21.8333 14.8087 20.9941 15.6514 20.2985C16.8664 19.296 18.2774 18.8094 20.273 18.8094C21.3018 18.8029 22.6017 19.2568 23.7808 20.0862C24.0062 20.243 24.0225 20.3475 23.8135 20.5402L23.8167 20.5369ZM30.1857 13.6727C30.398 13.8295 30.447 13.9209 30.2282 14.1266C29.4116 14.8908 28.6898 15.7529 27.8178 16.4582C26.6158 17.4314 25.2245 17.8951 23.7384 17.9049C22.2033 17.8951 20.8772 17.451 19.6916 16.5758C19.5708 16.4876 19.4466 16.4256 19.623 16.259C20.482 15.4459 21.2463 14.5316 22.1739 13.7936C24.4602 11.9747 27.8374 11.9355 30.1825 13.6727H30.1857ZM32.2793 2.903C31.8155 4.54556 31.3844 6.19792 30.8977 7.83396C30.385 9.56142 29.0916 10.3843 27.403 10.7011C26.4166 10.8872 25.4204 10.9656 24.421 11.0276C24.0519 11.0505 23.8886 10.9689 23.9703 10.5803C23.9833 10.5182 23.9703 10.4496 23.9703 10.3027C24.0519 9.27079 24.1401 8.16378 24.4112 7.07309C24.7999 5.52522 25.734 4.50964 27.256 4.06226C28.8564 3.59203 30.4699 3.16751 32.0768 2.71686C32.2891 2.65808 32.3348 2.68421 32.2761 2.903H32.2793Z" fill="#010101"/>
</g>
<defs>
<clipPath id="clip0_78_12">
<rect width="35" height="35" fill="white"/>
</clipPath>
</defs>
</svg>
