<svg width="30" height="35" viewBox="0 0 30 35" fill="none" xmlns="http://www.w3.org/2000/svg">
<g clip-path="url(#clip0_78_7)">
<path d="M9.54396 35C7.10318 35 4.92142 34.1813 3.03521 32.5505C1.46448 31.1926 0.481525 29.3579 0.109597 27.0925C-0.142783 25.5669 0.0365394 23.9986 0.67081 22.1606C1.76667 18.9878 3.39054 16.0385 4.82844 13.5265C5.82467 11.7872 6.92385 9.99529 8.18907 8.05213C8.57429 7.4603 9.1355 7.12164 9.7266 7.12164C10.3111 7.12164 10.8623 7.45372 11.2376 8.03569C13.6451 11.751 15.4483 14.8581 16.9128 17.8074C17.7065 19.4086 18.5931 21.3255 19.1311 23.4002C19.3436 24.2156 19.4432 24.9521 19.4399 25.6491C19.4233 27.5364 18.9318 29.2395 17.9754 30.7125C16.5973 32.8464 14.6082 34.1977 12.0611 34.7304C11.1944 34.9112 10.3542 35.0033 9.54396 35.0033V35ZM9.7266 8.43681C9.59709 8.43681 9.44101 8.55847 9.30486 8.76561C8.05292 10.689 6.96702 12.458 5.98407 14.1743C4.57606 16.6369 2.9854 19.5204 1.92607 22.5848C1.36485 24.2123 1.20214 25.5768 1.41799 26.8821C1.74342 28.8647 2.56034 30.3936 3.90858 31.5608C6.08702 33.4448 8.73701 34.0794 11.7855 33.4448C13.9706 32.9878 15.6741 31.8304 16.8563 30.0056C17.6832 28.7233 18.095 27.2964 18.1083 25.6425C18.1083 25.0606 18.0252 24.4326 17.8426 23.729C17.3345 21.7694 16.4844 19.9314 15.7206 18.3894C14.2794 15.4861 12.4995 12.4218 10.1185 8.74588C9.99226 8.55189 9.84615 8.43681 9.72328 8.43681H9.7266Z" fill="black"/>
<path d="M23.6639 17.6233C22.1032 17.6233 20.7117 17.1005 19.503 16.0549C18.4935 15.1836 17.8592 14.0033 17.6201 12.5533C17.4574 11.5735 17.5703 10.574 17.9754 9.40018C18.6562 7.43071 19.6591 5.6092 20.5457 4.0573C21.16 2.98543 21.8375 1.88069 22.6146 0.683881C22.9001 0.246587 23.3219 -0.0032959 23.7735 -0.0032959C24.2218 -0.0032959 24.6369 0.243299 24.9159 0.674017C26.3969 2.96242 27.5094 4.87599 28.4126 6.6975C28.9074 7.69046 29.4554 8.88397 29.7908 10.1794C29.9269 10.7022 29.99 11.1757 29.9867 11.6261C29.9767 12.8328 29.6613 13.9244 29.0469 14.8713C28.1636 16.2391 26.8851 17.1071 25.2546 17.449C24.7033 17.5641 24.1687 17.6233 23.6506 17.6233H23.6639ZM23.7768 1.34804C23.7768 1.34804 23.7503 1.37763 23.737 1.40065C22.9699 2.57773 22.3057 3.65946 21.7047 4.70831C20.8479 6.21089 19.8782 7.96664 19.234 9.82761C18.9019 10.7877 18.8089 11.5867 18.9318 12.3429C19.1211 13.5002 19.596 14.388 20.3763 15.0653C21.6681 16.1832 23.1791 16.5416 24.9922 16.1634C26.2641 15.8971 27.257 15.2264 27.9411 14.1644C28.4226 13.418 28.6617 12.5862 28.6717 11.6195C28.6717 11.2842 28.6219 10.9192 28.5156 10.5082C28.2101 9.32784 27.6954 8.21324 27.2304 7.27947C26.3504 5.50398 25.2612 3.62986 23.8067 1.38421C23.7968 1.36777 23.7868 1.35462 23.7768 1.34475V1.34804Z" fill="black"/>
</g>
<defs>
<clipPath id="clip0_78_7">
<rect width="30" height="35" fill="white"/>
</clipPath>
</defs>
</svg>
