<svg width="37" height="28" viewBox="0 0 37 28" fill="none" xmlns="http://www.w3.org/2000/svg">
<path d="M36.7173 22.404C36.5576 22.751 36.295 22.8569 35.9512 22.8545C34.3362 22.8442 32.7197 22.8245 31.1054 22.8608C30.3026 22.879 29.7249 22.536 29.294 21.8255C29.2415 21.7386 29.1854 21.6532 29.1278 21.5694C29.1156 21.5512 29.0883 21.5457 29.0674 21.5339C28.6998 22.0492 28.3567 22.5882 27.9617 23.0766C25.1504 26.5541 21.6153 28.1458 17.3954 27.8921C16.2818 27.825 15.1948 27.5618 14.1424 27.1469C13.7144 26.9785 13.5503 26.7264 13.6539 26.3834C13.7647 26.0175 14.0445 25.9131 14.4791 26.0649C18.7651 27.561 22.6419 26.7462 26.0827 23.5548C27.0308 22.6751 27.7977 21.6153 28.4135 20.4305C28.4761 20.3096 28.5149 20.131 28.4847 20.0014C28.1696 18.6294 27.8387 17.2621 27.5107 15.8932C27.4898 15.8055 27.4632 15.7201 27.3805 15.6237C27.3071 15.9722 27.2502 16.3263 27.1582 16.6693C26.7798 18.0753 26.3971 19.4798 25.9985 20.8787C25.9251 21.1371 25.777 21.3718 25.6518 21.6105C25.2036 22.468 24.5698 22.8972 23.626 22.864C22.0721 22.8103 20.5147 22.8261 18.9601 22.8593C18.1666 22.8759 17.6134 22.5091 17.1926 21.8129C16.589 20.8131 16.2667 19.686 15.9876 18.5448C15.7711 17.6588 15.5977 16.7602 15.4042 15.8679C15.3891 15.7968 15.361 15.7288 15.2733 15.6561C15.1675 16.169 15.0877 16.6907 14.9503 17.1933C14.6078 18.4468 14.2524 19.6971 13.8726 20.9372C13.7719 21.2667 13.5784 21.5671 13.4021 21.8619C12.9993 22.536 12.4475 22.898 11.685 22.8561C11.1397 22.8261 10.5922 22.8506 9.92537 22.8506C10.1959 23.1398 10.3721 23.3635 10.58 23.5429C11.0872 23.9808 11.6051 24.4036 12.126 24.8217C12.4504 25.0817 12.5504 25.3915 12.3792 25.6847C12.2044 25.9843 11.9116 26.0222 11.562 25.7811C10.5009 25.0493 9.55632 24.1665 8.74342 23.1193C8.58803 22.9193 8.42905 22.8363 8.19237 22.845C7.71398 22.8616 7.23488 22.8363 6.75649 22.8537C6.1148 22.8774 5.62562 22.5826 5.24363 22.0389C4.69258 21.2565 4.34584 20.3555 4.13146 19.4142C3.6466 17.2779 3.21569 15.1274 2.76751 12.9808C2.65241 12.4315 2.55386 11.8775 2.44883 11.3258C2.3697 10.9085 2.5222 10.6074 2.84521 10.5379C3.13656 10.4746 3.38546 10.6896 3.46172 11.0958C3.75307 12.6497 4.03291 14.2066 4.32713 15.7596C4.62856 17.3522 4.94221 18.9423 5.5357 20.444C5.61195 20.636 5.70044 20.8226 5.7918 21.0067C6.03495 21.4975 6.37665 21.737 6.92338 21.7164C8.06936 21.6737 9.21749 21.7038 10.3692 21.7038C10.3735 21.6358 10.3894 21.59 10.3757 21.5623C9.47287 19.7509 9.12182 17.7505 8.7204 15.7668C8.22906 13.3365 7.7442 10.9038 7.2133 8.48378C7.08381 7.89419 6.80397 7.34016 6.55722 6.7885C6.38097 6.3957 6.07811 6.22183 5.64864 6.23289C4.51273 6.26134 3.37539 6.24317 2.23877 6.24475C2.19273 6.24475 2.14741 6.25976 2.06971 6.27399C2.23445 6.69524 2.39847 7.09752 2.5481 7.50534C2.64594 7.77247 2.73946 8.04435 2.80564 8.32255C2.88765 8.66556 2.7409 8.95482 2.46897 9.04966C2.20424 9.14213 1.94526 8.98723 1.82225 8.65291C1.6388 8.155 1.4827 7.64286 1.27408 7.15838C1.08056 6.70868 0.858274 6.28505 0.323053 6.18468C0.184932 6.15623 -0.00354619 5.83851 5.07192e-05 5.65911C0.00364763 5.48207 0.1986 5.27579 0.354706 5.14697C0.451103 5.06714 0.630229 5.0948 0.772667 5.09401C2.36394 5.09085 3.95593 5.12326 5.54649 5.07979C6.37234 5.05687 6.94425 5.422 7.36868 6.15465C7.42551 6.25265 7.4881 6.3467 7.56939 6.47632C7.64061 6.38148 7.70176 6.31114 7.75139 6.23289C9.91242 2.7965 12.8662 0.729759 16.6329 0.139375C18.9407 -0.22181 21.1873 0.121988 23.3375 1.13599C23.7569 1.33358 23.9044 1.63628 23.7584 1.98087C23.6238 2.29779 23.3375 2.36102 22.9188 2.18319C18.5306 0.311669 14.4812 0.956586 10.8009 4.19145C9.75559 5.11061 8.92039 6.24554 8.2528 7.52193C8.18158 7.65787 8.11828 7.85151 8.14921 7.99219C8.49236 9.5452 8.85493 11.0935 9.21318 12.6433C9.21893 12.667 9.23548 12.6884 9.28655 12.784C9.37 12.373 9.44194 12.0221 9.51316 11.6712C9.83113 10.1103 10.1203 8.53673 10.7296 7.07144C10.926 6.59882 11.1857 6.14991 11.4684 5.73182C11.7778 5.275 12.2288 5.08532 12.7561 5.08848C14.4316 5.09717 16.107 5.10745 17.7817 5.08453C18.4738 5.07505 18.9752 5.38802 19.3586 5.98631C19.9104 6.84778 20.2298 7.82543 20.4737 8.82758C20.7629 10.0178 21.0031 11.2223 21.265 12.4205C21.2851 12.5129 21.3153 12.603 21.3671 12.7888C21.593 11.691 21.7657 10.688 22.0117 9.70801C22.2297 8.83785 22.4923 7.97638 22.8059 7.14257C22.9944 6.6415 23.2893 6.17915 23.5872 5.74051C23.9051 5.27263 24.3648 5.07188 24.9072 5.08848C25.4798 5.10587 26.0532 5.09243 26.7359 5.09243C26.5632 4.89485 26.464 4.75891 26.3453 4.64826C25.9539 4.28233 25.5568 3.92431 25.1597 3.5655C24.8763 3.30943 24.8151 3.02174 24.9892 2.74433C25.1676 2.45902 25.4935 2.39026 25.7726 2.65582C26.5028 3.3521 27.22 4.06499 27.9135 4.80396C28.1034 5.00629 28.2689 5.10982 28.5293 5.09796C28.9595 5.07821 29.3918 5.11693 29.8213 5.0869C30.5731 5.03474 31.1529 5.37774 31.4953 6.07008C31.8744 6.8375 32.2579 7.63416 32.4571 8.47034C32.9708 10.6248 33.3851 12.8077 33.8362 14.9796C33.9743 15.6443 34.1002 16.3121 34.2318 16.9783C34.3225 17.4391 34.1865 17.7505 33.8642 17.8185C33.5333 17.8888 33.306 17.6817 33.2146 17.2115C32.7334 14.7369 32.2809 12.2553 31.7622 9.79021C31.5723 8.88922 31.2479 8.01985 30.9457 7.15127C30.722 6.50714 30.322 6.17125 29.6213 6.22104C28.6322 6.29059 27.6358 6.23842 26.6431 6.23842C26.5158 6.23842 26.3891 6.23842 26.205 6.23842C26.3532 6.57906 26.4819 6.85489 26.5949 7.13783C27.2409 8.74617 27.5387 10.462 27.8783 12.1652C28.3473 14.5212 28.8113 16.878 29.3293 19.2213C29.4731 19.8734 29.7789 20.4882 30.0494 21.1C30.2407 21.5323 30.5738 21.7275 31.0435 21.7133C32.0838 21.6824 33.1254 21.7038 34.1664 21.7038H34.5736C34.3513 21.1332 34.1369 20.625 33.9556 20.1033C33.8297 19.7406 33.9556 19.445 34.2383 19.3193C34.521 19.1945 34.7728 19.3328 34.9196 19.6955C34.9635 19.803 34.9951 19.9168 35.0404 20.0235C35.1822 20.3555 35.3116 20.6953 35.4749 21.0146C35.6591 21.3742 35.885 21.6761 36.313 21.7362C36.4591 21.7567 36.5828 21.9654 36.7173 22.0879V22.404ZM14.1596 6.24317C14.1596 6.33089 14.151 6.36093 14.1611 6.38069C14.9164 7.91078 15.2733 9.58314 15.6049 11.2642C16.0818 13.6858 16.5271 16.1153 17.0501 18.525C17.2393 19.396 17.5868 20.2298 17.9105 21.0581C18.0853 21.5062 18.4285 21.7267 18.9198 21.7117C19.9838 21.6785 21.0492 21.7022 22.1146 21.7006C22.2383 21.7006 22.362 21.6872 22.5311 21.6769C21.7196 20.0796 21.3412 18.3875 21.0024 16.6843C20.5175 14.2509 20.078 11.8064 19.5529 9.38318C19.3586 8.48773 19.0033 7.62863 18.6615 6.78139C18.5673 6.54824 18.2623 6.27399 18.0465 6.26609C16.7573 6.21788 15.4653 6.24238 14.1604 6.24238L14.1596 6.24317ZM21.9009 15.7644C21.916 15.8829 21.9196 15.962 21.9362 16.0378C22.17 17.0803 22.3671 18.1362 22.6541 19.1613C22.8519 19.8686 23.1181 20.5689 23.4555 21.2082C23.8138 21.8879 24.3389 21.8777 24.718 21.2106C24.9928 20.7269 25.246 20.1958 25.3705 19.6473C25.8841 17.3862 26.346 15.1108 26.8229 12.8401C26.8517 12.7034 26.8812 12.5493 26.8531 12.4173C26.5791 11.1164 26.3345 9.80444 25.9928 8.52409C25.8115 7.84439 25.5021 7.18841 25.1626 6.58143C24.8907 6.09458 24.4684 6.11671 24.1749 6.59487C23.931 6.99241 23.6943 7.42947 23.5857 7.88707C23.1224 9.83763 22.7023 11.8 22.2786 13.7617C22.1326 14.4366 22.0211 15.121 21.9009 15.7644ZM14.7747 12.6046C14.7611 12.4821 14.7575 12.3896 14.7388 12.3003C14.5057 11.2033 14.3057 10.0953 14.0222 9.01331C13.8223 8.25063 13.5626 7.4919 13.2266 6.79087C12.8655 6.03689 12.3468 6.04874 11.9562 6.78139C11.7116 7.24057 11.4886 7.73928 11.3735 8.25221C10.8908 10.4011 10.4491 12.5603 10.0009 14.7188C9.91961 15.1116 9.76423 15.5439 9.83976 15.9082C10.139 17.349 10.5066 18.774 10.8735 20.1974C10.9562 20.5191 11.1181 20.8257 11.2836 21.111C11.7404 21.9014 12.2598 21.8958 12.7036 21.0889C12.8935 20.7435 13.0741 20.3729 13.1683 19.9872C13.5734 18.3306 13.9546 16.6677 14.3229 15.0009C14.4999 14.1995 14.6287 13.3847 14.7733 12.6038L14.7747 12.6046Z" fill="black"/>
</svg>
